<?xml version="1.0" encoding="UTF-8"?>
<svg id="Capa_2" data-name="Capa 2" xmlns="http://www.w3.org/2000/svg" viewBox="0 0 382.5 302.21">
  <defs>
    <style>
      .cls-1 {
        fill: #b1211f;
      }
    </style>
  </defs>
  <g id="Capa_1-2" data-name="Capa 1">
    <path class="cls-1" d="M382.5,279.71v-32.87l-215.93-1.48-1.45-6.15c28.22-66.28,53.22-134.32,82.16-200.06h72.47c3.52,16.53-9.01,25.01-17.7,36.82-.39,2.02,15.94,36.15,17.67,37.26,2.13,1.37,10.23-3.35,10.33-4.57.21-2.74-14.86-25.12-14.72-29.93.06-1.87,10.53-15.77,11.87-16.44,2.12-1.04,26.08-1.44,28.84-.76,1.07.26,12.75,15.76,12.31,18.07-1.39,7.21-13.46,21.69-14.23,29.07-.37,3.56,6.56,2.67,8.48,4.96.66.11,1.55.52,1.95.22,1.7-1.26,15.58-33.82,16.46-38.85-3.07-4.78-14.82-15.98-16.12-20.49-1.7-5.9,1.42-22.49-.97-25.92-2.23-3.21-16.24-.34-17.28-1.39-1.06-1.07,3.51-14.17-7.9-19.75-3.31-1.62-8.48-2.41-12.21-2.73-24.9-2.13-55.11,3.09-79.28.09-10.11-1.25-12.76-8.34-26.46-2.63-11.27,4.7-11.09,15.7-14.98,25.37-21.93,54.59-42.61,111.76-66.19,165.41-.82,1.86-1.43,6-3.65,6.06v-73.96c0-.16-2.08-2.24-2.24-2.24H46.32v32.12c0,.16-2.08,2.24-2.24,2.24H11.95v32.87c0,.6-11.95-.6-11.95,0v44.82h66.49c3.13,0,3.13,11.95,0,11.95H0v32.87h21.67c3.83,0,1.74,18.78,2.23,22.42h10.47v-22.42c15.63-1.65,9.95.87,15.16,9.5,8.8,14.56,30.3,17.33,43.02,6.1,8.39-7.41,5.11-19.27,20.03-15.66,1.61.39,2.79,7.24,4.19,9.56,9.43,15.55,33.23,17.55,45.26,3.86,5.98-6.81,3.3-15.62,15.03-13.36,7.09,1.36,2.47,17.01,3.73,22.43h10.47v-22.42h100.11v-10.47s-100.12.02-100.12.02v-11.96h156.89v11.96s-44.01-.11-44.01-.11c-1.54.42-.77,3.18-.81,4.58-.05,1.99,0,4,0,5.98h44.84s0,11.95,0,11.95l-11.97-.02v10.47h34.37v-10.47c-13.1,1.17-10.61,0-10.47-11.95h22.42ZM352.62,39.15v10.46h-22.41v-10.46h22.41ZM252.51,16.74h79.94c3.36,0,4.25,7.68,2.24,10.46h-82.18v-10.46ZM15.65,269.36c-7.88-.89-6.35-10.65-2.75-11.85,13.72-4.55,16.26,13.37,2.75,11.85ZM34.36,269.26v-11.97s16.44.02,16.44.02c-4.84,10.75-2.58,13.78-16.44,11.95ZM23.9,167.64l17.83,1.28c1.22-.06,2.31-.03,3.09.22,3.2,1.03.73,16.94,1.5,20.93-3.97-.07-7.99.09-11.96,0-3.48-.08-6.99.07-10.47,0v-22.43ZM79.2,279.72h-10.47v-10.47h10.47v10.47ZM79.19,246.84v-11.95h22.41v11.95h-22.41ZM111.37,269.35c-11.21,1.42-11.54-2.43-14.26-12.05h20.92c-2.9,3.23-2.61,11.54-6.66,12.05ZM124.02,246.85c-16.89,3.56-17.06-15.47,0-11.97v11.97ZM123.27,221.43c-5.37-8.25-28.08-24.19-31.36-31.4-2.48-5.47,1.41-18.88-2.29-21.68-1.28-.97-4.26-.49-4.46-.7-2.29.64-5.7-2.06-5.99,2.19-.32,4.74-.81,18.36.32,22.15.4,1.36,16.43,17.75,19.12,20.48,3.73,3.77,9.23,7.03,11.95,11.95H12.7c-3.83,0-1.74-18.92-2.25-22.42,3.47-.07,6.99.11,10.47,0,11.91-.34,23.95.34,35.86,0v-67.24c3.47-.06,6.98.09,10.46,0,3.97-.1,7.99.06,11.96,0v22.43c1.95-.12,4.02.2,5.97,0,10.89-1.15,4.29-13.73,5.97-22.42,3.47-.07,6.99.11,10.47,0,7.44-.21,14.97.16,22.42,0-.15,23.39.17,46.85,0,70.23-.04,5.39.66,11.18-.74,16.43ZM225.62,12.26c9.71-4.51,19.46,5.24,14.94,14.94-8.47,18.21-33.14-6.49-14.94-14.94ZM146.43,279.72h-10.47v-10.47h10.47v10.47ZM135.97,246.84v-22.41c11.7-.55,16.27,11.83,17.95,21.65l-17.95.77ZM157.65,224.42c-2.79-1.19-8.38-9.67-13.59-10.42l-.43-1.99L212.93,39.17c1.93-2.89,7.68,3.69,9.7,4.47,1.75.67,6.54.17,8.96,1.51-23.82,55.86-43.83,114.92-68.73,170.32-1.02,2.27-2.48,10.11-5.21,8.95ZM175.6,269.36c-9.14,1.04-8.82-4.83-11.24-12.05,6.38.91,16.08-3.42,16.56,5.21.28,5.14-.38,6.28-5.32,6.84ZM361.04,257.51c13.72-4.55,16.26,13.37,2.75,11.85-7.88-.89-6.35-10.65-2.75-11.85Z"/>
  </g>
</svg>