<?xml version="1.0" encoding="UTF-8"?>
<svg id="Capa_2" data-name="Capa 2" xmlns="http://www.w3.org/2000/svg" viewBox="0 0 455.52 84.74">
  <defs>
    <style>
      .cls-1 {
        fill: #5c575d;
      }

      .cls-2 {
        fill: #b1211f;
      }
    </style>
  </defs>
  <g id="Capa_1-2" data-name="Capa 1">
    <g>
      <path class="cls-1" d="M455.33,2.04c-.44,1.69-1.13,2.17-1.33,4.15-.66,6.51.99,16.35,1.36,23.27.15,2.77.82,5.18-2.25,5.55-6.26.76-14.02-1.23-20.58-.58-1.97,2.75-4.72.99-6.9,2.82,4.28-.01,9.63,4.41,4.23,7.46-1.72.97-3.52,0-4.23,1.25,4.83.15,10.27,2.92,5.65,7.6l-6.3,1.45c2.68-.19,7.52,1.45,7.03,4.71-.05.32-1.81,3.47-1.99,3.57-.89.51-2.57-.5-2.45.77,1.46-.6,7.63,3.79,8.08,4.53.91,1.49-.27,2.85-.15,4.12.19,2.07,3.09,3.41,1.15,6.58-2.38,3.88-8.33-.36-9.06.3-.54.48-1.08,4.93-4.92,5.15l-27.14-5.76c-4.05-3.2.43-6.99.39-8.11-.03-.9-1.27-1.59-1.2-2.49.06-.69,1.03-1.62,1.15-2.73.15-1.35-.29-4.72.12-5.36.28-.44,2.42-.64,2.5-.75.41-.58-2.91-6.24,6.46-5.49-5.83-.57-9.11-7.15-1.95-8.4-3.21-1.19-7.97-4.05-4.13-7.37l5.42-2c-2.25.53-3.4-1.19-5-1.78-1.2-.45-3.48.36-3.99-1.22l-.05-28.01L440.16.11c5.21-.55,10.11,1.17,15.18,1.93ZM443.7,2.04c-3,.22-6.42.29-9.38.64-.96.11-1.98.51-.95,1.29,3.09-.05,6.31-.26,9.37-.65.88-.11,2.06-.46.96-1.28ZM430.78,3.34c-1.37.14-6.05-.48-5.81,1.93,1.63-.69,4.89-.28,5.81-1.93ZM423.03,3.98c-4.59.1-10.15.16-14.58,1.27-1.08.27-1.89-.65-1.57,1.3,4.9-.11,10.37-.42,15.18-1.31,1.06-.2,1.12.42.97-1.27ZM446.29,4.62c-.39.36,0,9.14,0,10.66,0,.8,5.16,1.72,5.82,1.3,1.46-.91-.49-2.83-.51-4-.02-1.05,2.83-6.7.54-8.34-.24-.17-5.63.18-5.85.38ZM435.31,5.91v10.34c1.62-.11,8.25.4,8.96-.74.38-.62.43-8.67.74-10.25l-9.69.65ZM422.89,16.76c1-.71,1.08-8.44.7-9.79s-4.52-.53-5.12-.13c-1.09.73-.77,10.09.07,10.68.18.13,4.04-.55,4.35-.76ZM405.58,7.85l-8.4-.65v9.37c0,2.8,8.4,1.78,8.4.65V7.85ZM416.57,7.21l-8.4.65v9.69c1.46-.16,8.4.61,8.4-.97V7.21ZM433.35,16.89c.52-.42.82-6.56.66-7.74-1.26-.07-.35,1.82-.77,2.77-.45,1.04-1.5,1.35-1.8,2.73s.29,3.54,1.91,2.24ZM430.78,16.9c.22-.22.13-3.1-.61-3.61-.7-.48-3.94.47-5.19-.26v3.88c2.8,1.08,3.33-1.31,3.55-1.3.14,0,1,2.56,2.26,1.3ZM442.97,27.15c2.23-9.18,1.07-9.58-7.67-8.31v8.41s7.67-.09,7.67-.09ZM453.4,18.19h-3.24c-.22,1.3.3,8.11,0,8.41-.43.43-4.27-.85-4.52.64,8.2,1.21,8.08-1.83,7.75-9.04ZM434.01,18.84c-3.43-.22-9.75.66-9.04,5.17,3.53-.71,10.34.07,9.04-5.17ZM398.47,25.95c.14.13,2.47-.16,3.43.12,1.08.32,3.63,4.01,4.32.19,1.24-6.82-1.88-7.01-7.75-6.79.17,1.09-.24,6.25,0,6.47ZM408.81,27.88c.57.36,11.59,0,13.57,0-.18-3.02,3.69-7.4-1.04-7.73-2.2-.15-4.84-.72-6.38-.75-2.06-.04-4.5,1.26-6.8.72-.28.27.08,7.4.65,7.76ZM433.37,26.58c1.42-1.92-10.5-3.61-8.02.66l8.02-.66ZM423.03,41.46c-1.52-1.52-12.41-3.17-14.86-1.29.2,1.21,1.36,1.06,2.18,1.36,4.18,1.53,7.31,2.26,11.71,1.2.76-.18,2.06-.17.96-1.27ZM406.23,42.74c-.04-2.99-3.89-1.73-5.81-1.93.28,1.27,5.42,2.25,5.81,1.93ZM422.38,51.78c-3.06-2.57-8.38-3.45-12.28-3.86,2.97,3.83,7.66,5.39,12.28,3.86ZM419.79,59.55c-.24-.28-5.63-2.78-6.42-2.96-1.74-.38-3.45-.34-5.21-.28,2.95,2.38,7.66,3.52,11.3,4.53.57.07.4-1.21.33-1.29ZM407.52,60.83c-.77-4.87-3.39-3.6-7.1-3.22.38,1.24,6.82,3.5,7.1,3.22ZM403.64,62.13l-5.16-1.3v4.52c.95-.01.93-1.42,1.45-1.76.89-.58,3.45.03,3.7-1.46Z"/>
      <polygon class="cls-2" points="323.53 2.68 323.53 15.61 295.75 15.61 295.75 18.84 322.88 18.84 322.88 30.47 295.75 30.47 295.75 33.7 323.53 33.7 323.53 45.97 280.24 45.97 280.24 2.68 323.53 2.68"/>
      <path class="cls-2" d="M103.2,45.33h-16.15c-.93-1.78-4.48-8.72-5.81-9.37-2.08-1.01-6.61.07-9.05-.32v9.69h-15.51V2.68h33.27c1.93,0,7.16,2.74,8.74,4.19,5.72,5.24,6.18,16.88,1.57,22.92-.94,1.23-3.98,2.9-4.12,3.67-.18,1.05,6.48,9.88,7.06,11.87ZM86.08,16.25c-4.04-.67-9.66.49-13.89,0v5.82h13.89c2.45,0,3.16-5.29,0-5.82Z"/>
      <path class="cls-2" d="M51.52,2.68v11.63h-26.17c-.33,0-4.07.92-4.68,1.14-7.33,2.68-7.24,14.74,0,17.1,3.64,1.19,11.46,1.3,13.39-2.73h-8.4v-9.7h25.2c2.86,20.94-13.12,27.01-31.26,25.12C3.8,43.6-4.27,28.23,2.29,13.87,4.53,8.98,12.88,2.68,18.24,2.68h33.27Z"/>
      <path class="cls-2" d="M162,45.33h-15.51c-.41,0-1.59-6.93-3.53-7.15-2.05-.24-16.82-.28-18.03.13-1.63.56-2.61,7.02-2.99,7.02h-16.15L123.52,2.64c3.48.63,20.44-.96,22.02.67l16.46,42.02ZM129.05,27.24h10.34c-1.4-3.61-2.57-7.48-4.24-10.98-.33-.7.05-1.65-1.25-1.3-.64.17-4.44,10.67-4.85,12.28Z"/>
      <path class="cls-2" d="M344.85,23.36c2.94-1.74,17.05-20.03,18.41-20.03h17.77l-18.04,21.55,18.04,21.09h-17.77c-1.36,0-15.38-18.36-18.41-20.03l-.65,20.03h-14.86V2.68h14.54c.07,0,.97.9.97.97v19.71Z"/>
      <path class="cls-2" d="M170.4,2.68l11.95,31.02,12.6-31.02h15.51l-17.74,43.34c-3.69-.71-19.38,1.06-21.35-.69L154.25,2.68h16.15Z"/>
      <path class="cls-2" d="M277.65,2.68v13.25c0,.07-.9.97-.97.97h-14.54v29.08h-14.86v-28.75c0-.07-.9-.97-.97-.97h-14.54V2.68h45.87Z"/>
      <polygon class="cls-2" points="229.2 2.68 228.55 45.97 213.69 45.97 213.69 2.68 229.2 2.68"/>
      <path class="cls-1" d="M265.38,69.23v-10.98h8.4v23.26h-9.37c-.83,0-7.4-10.73-9.37-11.63v11.63h-8.4v-23.26h10.01c.7,0,6.77,10.19,8.72,10.98Z"/>
      <path class="cls-1" d="M379.1,66.65c-.24.24-5.98.14-6.78-.01-1.5-.29-1.72-1.67-3.85-1.96-1.77-.25-5.48-.38-6.82,1.01l6.21,1.53c7.16-1.58,16.25,4.62,10.28,11.72-4.17,4.96-26.64,5.62-25.54-5.18,6.58-1.12,11.65,2.8,18.1,1.29v-1.93c-6.89-.1-22.09.5-17.5-10.72,2.38-5.81,21.47-5.64,24.91-.9.71.98,1.55,4.58.99,5.16Z"/>
      <path class="cls-1" d="M244.7,58.25v6.46h-14.86v1.94h14.21v6.46h-14.86v1.29h14.54c1.48,0,.88,5.81.97,7.11h-23.91v-23.26h23.91Z"/>
      <path class="cls-1" d="M212.07,58.25c5.77,1.03,7.95,8.03,5.81,12.92-.66,1.51-2.68,2.98-2.8,3.64-.3,1.54,3.94,5.96,3.12,6.69-2.24-.35-6,.57-7.97-.1s-2.81-7.23-8.19-5.06c-.17.96.24,4.94,0,5.17-.3.3-7.1-.22-8.4,0v-23.26c5.51.69,13.19-.93,18.41,0ZM201.41,68.59c12.24,1.3,12.22-4.54,0-3.24v3.24Z"/>
      <path class="cls-1" d="M319.65,81.51c-.16-.14.07-3.16-1.72-3.77-.82-.28-9.41-.29-9.83-.02-.51.34-.31,3.2-1.79,3.71-1.93.65-5.77-.28-7.99.08.97-2.88,7.99-22.27,9.02-22.96.92-.62,11.92-.49,12.37.1l8.98,22.86c-1.38-.24-8.67.33-9.05,0ZM315.77,71.81l-2.26-6.45-2.91,6.45h5.16Z"/>
      <path class="cls-1" d="M300.91,58.25c.77,8.68-.34,8.11-8.4,7.75v15.51h-8.4v-15.51h-7.76s0-7.75,0-7.75h24.55Z"/>
      <polygon class="cls-1" points="339.03 58.25 339.03 74.4 351.31 74.4 351.31 81.51 330.64 81.51 330.64 58.25 339.03 58.25"/>
    </g>
  </g>
</svg>