<?xml version="1.0" encoding="UTF-8"?>
<svg id="Capa_2" data-name="Capa 2" xmlns="http://www.w3.org/2000/svg" viewBox="0 0 231.5 240.35">
  <defs>
    <style>
      .cls-1 {
        fill: #b31524;
      }
    </style>
  </defs>
  <g id="Capa_1-2" data-name="Capa 1">
    <g>
      <path class="cls-1" d="M231.41,198.1c-.02,1.44.49,3.69-.66,4.59h-121.87c.03-.19-.63-.68-.18-1.76,2.12-5.02,6.88-3.05,10.98-3.49,16.86-1.82,29.51-17.63,28.53-34.41-.29-4.94-2.31-12.55-8.71-11.96-5.21.48-14.35,13.22-18.84,16.61-.49.44-.79.26-1.3,0-.76-.39-6.62-6.55-6.51-7.16,3.86-6.24,24.17-17.52,14.06-25.33-4.97-3.84-15.51-2-21.31-1.29l41.25-12.8,10.37,10.64.15,40.47c3.39,6.15,6.4,6.15,9.8,0l.15-40.47c.21-.71,9.7-10.34,10.37-10.64,1.88-.84,10.55,3.62,13.22,4.47,13.12,4.19,33.71,4.57,37.04,20.62,1.93,9.34,2.17,25.14,2.78,35.22.33,5.36.72,11.38.66,16.7Z"/>
      <path class="cls-1" d="M175.72,97.2c5.44-.48,11.51.35,17.03,0,.3,1.14-.47,1.31-.98,1.97-23.04,30.03-62.26,11.98-68.47-21.63-5.32-28.78,1.55-58.71,35.72-60.93,38.44-2.49,48.71,30.84,41.95,62.91-.32,1.5-1.53,6.69-2.73,7.09-7.23-.79-18.02,1.38-24.8.08-2.22-.42-3.24-3.5-7.84-3.95-6.33-.62-14.07.11-15.28,7.73-1.57,9.9,7.88,12.38,15.84,11.25,4.42-.63,5.19-4.14,9.56-4.53Z"/>
      <path class="cls-1" d="M106.92,137.82c3.29-.89,18.12-1.84,18.89,2.39.43,2.36-3.22,4.43-4.5,5.78-4.26,4.48-8.81,8.71-12.82,13.42-.78.92-2.24.26-1.26,2.02.42.75,11.38,11.75,12.14,12.14.5.26.81.44,1.3,0,3.68-2.46,15.25-17.07,18.16-17.94,4.6-1.37,5.52,6.13,5.48,9.38-.17,15.4-12.03,27.49-27.22,28.52-1.71.12-6.22-.65-6.89-.37-1.06.44-6.13,5.95-6.57,7.55-.14-.04-.51-.03-.66,0-1.23.29-1.91,1.96-2.62,2.62-.23.21-.43.44-.66.66-.66.65-1.32,1.34-1.97,1.97-1.11,1.06-2.21,2.17-3.28,3.28-.64.67-1.31,1.26-1.97,1.97-.87.93-2.62,1.93-3.28,3.28-1.1.27-1.4,1.42-1.97,1.97-1,.98-2.62,1.94-3.28,3.28l-1.97,1.97c-1.08.5-2.78,2.19-3.28,3.28l-1.97,1.97c-1.08.5-2.78,2.2-3.28,3.28-1.1.27-1.4,1.41-1.97,1.97-2.57,2.52-6.24,6.65-9.81,7.55-8.01,2.03-15.57-.88-19.37-8.18-2.64-5.07-2.29-6.42-1.61-11.82,1.16-.56.94-1.83,1.31-2.62.32-.68,1.81-3.77,1.97-3.93,10.73-10.89,22.52-21.64,33.42-32.76,1.88-1.91,8.72-7.49,9.49-9.18.93-2.05.1-6.31.35-8.82,1.03-10.38,9.34-21.79,19.65-24.58ZM90.31,195.25c.56-.59,3.7-4.11,3.82-4.37,1.54-3.31-1.55-5.94-4.62-3.95l-35.05,35.05c-2.18,3.64.88,7.29,4.29,4.29,10.12-10.7,21.38-20.4,31.55-31.02Z"/>
      <path class="cls-1" d="M120.02,75.58c-.08,1.13-.29,3.6-1.79,3.9-1.79.36-10.37.3-12.16-.11-3.27-.74-5.37-4.99-5.71-8.05-.43-3.84-.46-15.7.45-19.21s3.62-4.88,4.63-7.17c1.66-3.78,2.16-9.59,4.19-14.15,18.04-40.35,84.11-40.99,104.21-2.18,2.86,5.53,3.05,11.02,5.07,15.9.75,1.81,2.86,3.33,3.86,5.31,1.95,3.85,2,17.5,1.37,22.1-.47,3.48-2.21,5.69-5.37,7.09-.9.4-2.82.4-3.01.58-.43.41-.77,8.08-3.69,11.06-5.95,6.08-27.61,3.63-36.36,3.93-1.2.04-3.65-.31-4.45.14-.75.43-1.64,3.66-4.53,4.31-5.35,1.2-13.96.32-13.96-6.74s8.61-7.95,13.96-6.74c2.3.52,3.08,2.85,4.41,3.45,1.49.68,28.47.71,31.77.34,6.13-.69,7.46-4.08,7.54-9.83-1.39-.02-4.07.21-5.09-.81-2-2-.18-26.99-.79-31.6.53-2.87,3.91-2.85,3.96-3.33.33-3.19-4.85-13.18-6.98-15.96-17.29-22.49-56.9-24.02-76-3.05-3.16,3.47-9.96,14.46-9.49,19.01.04.43,3.36.29,3.93,4.01.94,6.04.48,21.27.04,27.81Z"/>
      <path class="cls-1" d="M35.5,222.34c.13-1.19-.73-7.37-1.25-8.11-.22-.31-6.72-2.86-7.1-2.92-3.37-.53-7.14,6.83-11.02,4.51-.65-.39-7.28-7.19-7.41-7.71-.63-2.41,5.45-7.53,5.73-9.13.07-.41-2.9-7.33-3.14-7.67-1.38-1.87-10.17-.47-11.06-3.51-.37-1.27-.35-10.44.19-11.34,1.21-2.04,9.2-1.5,10.66-2.76.31-.27,3.27-7.11,3.33-7.52.27-1.81-7.15-7.06-5.19-10.37.57-.96,7.46-7.47,8.27-7.54,2.47-.22,6.12,4.78,8.63,5.18.54.09,7.04-2.11,7.6-2.48,1.88-1.25.96-9.63,3.06-10.86.9-.53,10.11-.57,11.35-.19,3.23.97,1.96,9.51,3.19,10.89.28.32,7.61,2.79,8.03,2.75,2.54-.24,6.4-5.56,9.19-5.27.87.09,7.47,6.35,7.88,7.24,1.83,3.94-4.53,7.62-4.77,10.24-.04.42,2.34,7.64,2.63,7.94.47.48,2.92.65,3.78.81l-3.93,5.23c-.76.13-1.43.36-1.98.94-8.84,10.63-22.64,20.31-30.78,31.17-2.34,3.13-3.06,4.75-3.93,8.52-.29,1.26-1.04,2.42-.66,3.93-.19-.03-.43-.56-.66-.66l-.66-1.31ZM34.42,191.97c12.75,11.19,29.61-8.92,16.48-19.43-12.86-10.29-28.57,8.82-16.48,19.43Z"/>
      <path class="cls-1" d="M194.39,97.2c.43.22.43.44,0,.66v-.66Z"/>
    </g>
  </g>
</svg>