<?xml version="1.0" encoding="UTF-8"?>
<svg id="Capa_2" data-name="Capa 2" xmlns="http://www.w3.org/2000/svg" viewBox="0 0 339.79 254.99">
  <defs>
    <style>
      .cls-1 {
        fill: #b31524;
      }
    </style>
  </defs>
  <g id="Capa_1-2" data-name="Capa 1">
    <g>
      <path class="cls-1" d="M83.21,77.88l2.33,1.35h129.76s-1.34-.68-1.34-.68c-42.36-.38-84.75.49-127.12.05-1.24-.01-2.16-.72-2.28-.73l131.94.15c4,1.2,6.18,4.21,6.61,8.31l-4.09,26.66h43.58c.26,0,3.19,1.38,3.69,1.72,10.05,13.91,23.26,28.22,32.34,42.66,2.4,3.82,3.08,4.4,2.74,9.25-1.16,16.55-6.94,34.88-8.48,51.65-1.37,4.93-5.87,8.95-11.02,9.58.38-2.05-1.03-1.3-2.33-1.35-6.28-.25-12.61.21-18.89-.03-.8.02-.27.96-.4,1.38-2.17,7.14-2.69,11.37-8.09,17.25-10.99,11.93-32.84,14.76-41.35-1.24-1.68-3.15-1.12-3.1-1.23-5.87.97-.78.94-8.43.67-8.79-.08-.11-.97.06-1.35,0,1.4-7.82,6.52-15.96,13.3-20.15,2.44-1.51,5.67-2.14,7.65-4.17-7.56.41-16.46,6.66-20.83,12.61-2.36,3.22-3.43,7.02-5.52,10.36.38-2.05-1.03-1.3-2.33-1.35-21.77-.86-43.72.66-65.51-.02-.77-.05-.28.91-.4,1.37-3.09,12.38-8.59,22.19-21.78,25.85-30.95,8.58-39.86-28.79-16.55-44.25,2.64-1.75,5.63-2.57,7.93-4.57-9.77.9-19.08,8.79-23.56,17.31-.84,1.61-1.22,5.27-2.79,5.66.38-2.05-1.03-1.3-2.33-1.35-11.01-.44-23.49-.37-34.52,0-1.3.04-2.71-.69-2.33,1.35-11.25-3.98-5.91-16.95,5.41-14.19l-6.08,1.34c4.13-.68,31.76.95,33.05-.07.27-.22-.06-1.13.05-1.27,1.09-1.37,3.43-1.77,4.73-3.71,3.37-5.03-.09-10.02-5.23-11.67l-64.37-.15c.13,0,1.04-.71,2.28-.73,20.27-.18,40.65.66,60.9.05.59-.02,2.43.28,1.34-.68-21.13.63-42.42-.83-63.54,0-1.3.05-2.71-.69-2.33,1.35-7.37-.85-7.55-13.08.68-14.19-.38,2.05,1.03,1.3,2.33,1.35,27.93,1.1,56.53-.86,84.53.04,1.55.29.79-1.16.97-1.39.9-1.13,2.4-1.29,3.4-2.35,3.82-4.06,1.94-10.54-3.2-12.37-20.78-1.56-43.53,1.59-64.08-.12-1.16-.1-2.63-.24-3.68-.7.7-1.12,2.56-.67,3.71-.69,19.89-.25,40.38.82,60.15.01.82-.03,2.51.51,2.35-.67-22.7-.44-45.65.87-68.24-.68-2.88-3.39-3.17-6.12,0-9.46l5.03-.71,32.8.03c.16-1.18-1.53-.63-2.35-.67-9.88-.41-19.89.12-29.79.03-.89,0-1.54-.7-1.63-.7l33.79-.67,10.44-66.25c.92-4.4,5.92-9.81,10.5-10.11ZM254.83,129.23h-20.95v.68h20.95v-.68ZM228.48,159.63c.15.27-.42,1.27.4,1.39h41.77c.83-.11.24-1.13.4-1.39,1.56-2.61,3.09-2.67,1.4-6.47-.77-1.74-14.01-19.41-15.59-20.89-.62-.58-1.15-1.13-1.99-1.39-2.17-.68-17.25-.69-19.93-.26-2.35.37-4.28,2.34-4.94,4.52-.79,2.64-3.39,18.42-3.34,20.92.03,1.55,1.15,2.36,1.83,3.57ZM24.09,164.36v.68c.44-.23.44-.45,0-.68ZM109.39,219.25c-12.28,1.99-14.18,19.92-2.11,20.76,14.51,1.01,17.45-23.25,2.11-20.76ZM234.39,219.24c-11.74,1.72-15.04,19.86-2.12,20.78,13.82.98,17.69-23.06,2.12-20.78Z"/>
      <path class="cls-1" d="M240.51.38c72.31-6.38,123.26,68.89,87.65,132.92-1.89,3.39-11.12,17.19-14.04,18.39-4.97,2.04-8.94-1.39-7.92-6.56.26-1.3,6.57-8.27,7.97-10.27,38.27-55.01-4.17-128.45-70.47-123.85-26.87,1.86-51.1,19.13-63.53,42.55-2.49,4.69-3.57,13.66-10.06,12.84-10.34-1.31,1.28-19.81,4.05-24.25C188.26,19.48,213.57,2.76,240.51.38Z"/>
      <path class="cls-1" d="M248.56,24.63c3.27-.71,6.37.89,6.9,4.3l.39,52.98c.9,1.36,1.73,1.87,3.33,2.08,10.83,1.42,24.55-1.25,35.7.11,6.08,2.26,5.76,10.07-1.18,10.7-10.28.94-25.85-1.8-35.15-.02-1.67.32-2.85,2.5-4.81,3.3-8.07,3.27-15.74-4.77-12.1-12.77.95-2.09,3-2.79,3.08-5.03V28.93c.27-1.99,1.86-3.87,3.83-4.3Z"/>
    </g>
  </g>
</svg>