<?xml version="1.0" encoding="UTF-8"?>
<svg id="Capa_2" data-name="Capa 2" xmlns="http://www.w3.org/2000/svg" viewBox="0 0 321.41 313.29">
  <defs>
    <style>
      .cls-1 {
        fill: #b31524;
      }
    </style>
  </defs>
  <g id="Capa_1-2" data-name="Capa 1">
    <g>
      <path class="cls-1" d="M321.41,200.76c-11.38,2.93-24.4-3.47-35.95-5.02,1.38,5.91,14.61,18.45,14.54,23.36-.02,1.18-1.22,3.09-1.91,3.09h-24.59v85.12c0,2.18-6.42,7.07-9.4,5.73l-208.2.03c-3.19,1.49-9.38-4.98-9.38-7.01v-83.86h-24.59c-.69,0-1.89-1.91-1.91-3.1-.06-3.9,12.67-18.22,15.13-22.77L.56,202.05l-.56-6.18,50.91-19.06h218.16c15.85,5.67,33.36,11.3,48.59,18.26,1.8.82,2.77,1.39,3.74,3.18v2.52ZM30.11,215.89h259.77l-22.33-32.81-214.16-.08-1.59.38-21.7,32.51ZM265.92,222.2H54.07v84.49h211.85v-84.49Z"/>
      <path class="cls-1" d="M291.36,88.74c-.88,1.48-.3,8.33-2.92,12.84-5.01,8.63-22.65,12.57-31.97,12.28-9.07-.28-9.33-7.1-11.47-7.59-.37-.08-6.51,2.25-6.72,2.54-1.63,2.26,6.5,9.09-.65,16.36-7,7.12-16.77,1.49-17.11-7.64-15.27-.45,1.92,16.47-11.26,20.89-12.03,4.03-12.97-8.56-16.04-9.42-9.16-2.55-2.92,10.19-4.48,15.39-1.79,6-10.82,7.31-15.54,3.45-2.71-2.22-3.99-8.57-4.39-8.87-.32-.24-7.31,2.22-7.55,2.54-.64.86,7.88,15.22-3.41,18.64-12.6,3.81-12.09-8.16-14.33-9.75-.99-.7-9.99,2.63-10.73,3.67-.94,1.33,1.74,5.67-1.38,7.69-1.94,1.25-18.07,7.68-20.5,8.18-26.28,5.35-39.52-25.64-18.91-40.35,3.26-2.33,21.35-10.45,24.35-9.44,1.76.59,1.65,3.59,2.84,3.79,1.12.19,9.5-3.09,10.04-3.85,1.18-1.63-2.35-7.05-1.99-10.65.86-8.59,13.26-11.46,18.25-4.51,3.46,4.82-.68,8.79,9.37,4.9-2.04-7.05-3.47-19.29,7.12-20.01s10.19,10.04,11.93,11.31c.32.24,7.31-2.22,7.55-2.54.61-.81-5.88-10.16-.59-16.33,3.21-3.74,11.69-3.58,15.02.02s1.37,10.07,7.94,6.56c5.42-2.89.91-4.5.34-8.62-1.11-7.91,6.35-14.63,13.83-11.22,5.52,2.52,5.19,13.88,13.16,8.31,1.85-1.29-.41-8.1,1.93-12.19,1.6-2.8,19.28-15.98,22.4-16.69,3.36-.76,8.43-.54,11.8.28,4.54,1.09,6.66,5.54,9.42,5.8,3.43.33,9.23-4.1,12.86-4.79,20.73-3.96,31.41,21.22,15.4,33.05-2.6,1.92-13.18,5.28-13.59,5.96ZM259.62,54.49c6.34,13.65,10.48,29.03,17.59,42.3,4.43,8.28,7.12-2.24,6.06-8.59-.58-3.46-11.53-28.53-13.63-30.49-2.29-2.13-6.88-3.51-10.01-3.21ZM301.23,74.66c.32-.32,2.21.19,3.55-2.07,3.58-6.04-1.47-15.6-8.59-15.57-1.03,4.7,3.84.97,5.11,3.32s1.69,12.64-.08,14.33c-.3.29-6.99,2.19-7.99,2.15-7.54-.31-10.87-11.83-5.36-16.14,1.69-1.32,4.67-.22,4.52-2.4l-12.56,2.57,7.53,21.38c.73.66,10.57-3.24,11.77-4.03,2.29-1.51,1.79-3.24,2.09-3.54ZM253.51,105.97c1.98,1.24,18.19-.81,18.65-3.03.56-2.73-16.62-39.17-19.47-44.64-3.54,3.33-13.35,7.39-13.38,11.88-.02,2.74,12.57,34.77,14.2,35.79ZM216.63,76.04c-1.48-1.01-6.61-.03-6.02,2.82,6.06,11.13,9.64,24.08,15.14,35.34,2.05,4.21,5.48,12.12,7.35,2.85-2.96-4.87-14.65-39.76-16.47-41.01ZM236.76,83.65c-1.78-1.11-8.1,1-8.56,3.12-.18.84,6.06,15.7,6.92,15.69,2.19-.03,5.49-2.68,8.11-2.59-1.06-2.32-5.73-15.75-6.47-16.21ZM207.91,131.4c2.13-2.06-15.11-37.5-16.65-43.23-1.79-4.13-6.77-2.19-5.84,1.97l17.34,40.48,5.16.78ZM210.42,93.57c-.58-.43-7.52,2.48-7.65,3.3-.2,1.19,5.08,15.49,5.89,15.71,2.33.62,5.69-1.05,8.09-1.37l-6.33-17.64ZM164.83,97.58c-1.19-.7-3.34-.04-4.83-.21-2.29,2.19,15.48,37.27,16.65,43.23,1.78,4.12,6.78,2.2,5.83-1.95-3.14-4.78-15.73-39.93-17.65-41.07ZM185.16,104.96c-1.54-1.11-7.31,1.39-7.58,4.4-.12,1.29,5.1,14.46,5.88,14.57.91.13,6.77-1.34,6.88-2.08.25-1.7-4.47-16.37-5.19-16.88ZM136.69,107.45c-3.31.74-1.31,6.32-.71,8.26,2.43,7.88,10.95,28.45,14.93,35.5,3.07,5.44,6.92,1.28,6.07-2.16-6.71-11.46-10.1-26.57-16.46-37.89-.77-1.37-1.72-4.18-3.83-3.71ZM159.93,116.33c-.73-.65-7.23.46-7.59,2.03-.57,6.19,4.48,10.79,5.14,16.83,2.08-.3,6.84-1.29,7.46-3.32.24-.78-4.41-15-5.02-15.54ZM133.5,126.36l-11.33,3.79c.5,2.52,5.57,17.09,6.32,17.64.98.72,8.93-4.1,11.3-3.83l-6.29-17.61ZM109.23,129.09c-2.27.46-13.42,5.89-15.25,7.54-9.21,8.32-3.86,25.18,7.71,27.33,6.22,1.16,17.67-4.42,22.84-8.09-1.54-4.18-9.5-26.06-12.03-26.85-1.13-.36-2.15-.14-3.26.08Z"/>
      <path class="cls-1" d="M97.91,1.82c3.25,3.24-.05,13.57,2.73,15.55,6.79,4.84,8.48-14.52,20.9-5.76,1.22.86,9.72,9.33,10.06,10.1,4.67,10.89-8.94,12.88-6.81,19.38,1.48,4.54,13.12-.39,16.42,3.81,1.94,2.47,1.75,21.06-.02,23.87-2.54,4.02-13.91.42-15.95,3.27-3.89,5.41,8.43,10.21,8.23,15.86-.12,3.49-12.53,16.27-15.99,16.82-6.66,1.05-10.01-10.48-15.97-8.54-4.55,1.49.39,13.11-3.81,16.42-3.83,3.01-22.72,3.96-25.36-1.36-1.69-3.42.69-12.51-1.36-14.01-7.62-5.57-10.39,12.18-20.13,6.49-.73-.43-11.54-11.24-11.97-11.97-5.25-8.95,7.86-10.84,7.4-17.41-.51-7.29-11.4-.45-16.23-5.29-3.98-3.98-4.21-23.75,2.21-25.68,4.37-1.31,15.32,2.53,14-4.47-.62-3.31-9.7-6.44-8.61-13.99.31-2.13,11.18-13.2,13.46-14.41,8.89-4.71,10.87,7.61,17.16,7.18,7.61-.53-.12-13.84,5.98-16.8,2.82-1.37,21.51-1.21,23.67.94ZM91.91,6.56h-13.88c-.68,3.26,1.07,12.87-.21,14.93-.34.55-11.36,4.98-12.01,5.04-2.64.25-8.48-8.1-11.11-9.86-1.46,2.15-9.07,7.91-9.37,9.61-.47,2.72,7.75,7.25,8.56,10.2.5,1.85-2.4,10.38-3.51,12.1-2.16,3.33-11.55,1.8-15.23,2.11v13.88c3.11.66,13.15-1.01,14.97.16.43.28,3.52,8.66,3.71,9.61,1.37,6.93-4.85,8.85-8.56,13.55l9.43,9.43c4.8-3.94,6.62-9.71,13.75-8.77,1.14.15,7.67,2.57,8.32,3.11,3.81,3.16-2.18,14.54,4.4,15.77,19.01,3.55,8.76-8.81,12.59-15.15,1-1.65,11.07-5.4,13.22-4.44,7.7,3.46,6.29,16.32,18.87-.13.49-2.79-9.29-8.71-9.8-11.36-.11-.56,3.69-9.61,4.29-10.47,3.28-4.67,10.68-1.93,15.7-2.59v-13.88c-3.63-.65-12.55,1.21-15.19-.57-1.18-.8-5.32-11.21-4.41-13.25,3.47-7.7,16.31-6.29-.13-18.87-6.3,2.45-6.77,9.99-14.63,8.48-11.78-2.25-10.09-8.57-9.78-18.67Z"/>
      <path class="cls-1" d="M81.46,240.13h157.06c2.49.66,4.2,1.43,4.7,4.13.7,3.77.68,25.2-.04,28.97-.58,3.08-2.47,4.48-5.58,4.51l-156.39-.09c-2.62-.37-3.93-1.9-4.41-4.41-.6-3.13-.34-29.32.58-30.87.65-1.1,2.79-1.95,4.08-2.23ZM235.66,247.42H84.33v22.7h151.32v-22.7Z"/>
      <path class="cls-1" d="M97.34,156.22c-9.96-9.11,4.14-25.38,14.69-16.57s-3.63,26.69-14.69,16.57ZM108.29,151.58c.4-.39.27-5.96-1.2-6.99-3.54-2.57-8.85,3.93-5.13,6.39,1.08.72,5.98.95,6.34.6Z"/>
      <path class="cls-1" d="M78.96,29.56c45.62-7.75,45.69,62.5-.22,55.11-27.53-4.43-28.93-50.15.22-55.11ZM81.49,35.86c-25.49,4.02-21.69,45.11,5.84,42.53,28.34-2.65,23.55-47.17-5.84-42.53Z"/>
    </g>
  </g>
</svg>