<?xml version="1.0" encoding="UTF-8"?>
<svg id="Capa_2" data-name="Capa 2" xmlns="http://www.w3.org/2000/svg" viewBox="0 0 222 224.76">
  <defs>
    <style>
      .cls-1 {
        fill: #b31524;
      }
    </style>
  </defs>
  <g id="Capa_1-2" data-name="Capa 1">
    <g>
      <path class="cls-1" d="M174.6,0l46.77,46.5.62,1.13-.03,161.48c-2.01,9.15-8.81,14.98-18.16,15.64H60.24c-9.25-.73-16.42-7.3-17.76-16.48l-.07-31.53c-3.95-2.55-8.24-4.5-12.1-7.22C.67,148.68-8.78,108.79,8.89,76.81c7.54-13.65,19.4-23.97,33.38-30.71,1.01-9.47-.62-19.84.2-29.21.47-5.38,3.95-11.07,8.49-13.9,2.03-1.26,4.43-1.77,6.45-2.99h117.2ZM169.77,7.46H59.38c-3.28,0-9.44,5.71-9.44,9v26.56c4.65-.67,9.19-2.11,13.88-2.58,48.41-4.78,87.45,38.81,76.84,86.5-1.57,7.06-4.47,13.22-7.27,19.8l34.17,34.34c14.55,18.4-8.13,41.08-26.53,26.53l-34.34-34.17c-5.21,2.05-10.17,4.64-15.59,6.2-8.5,2.46-18.08,3.39-26.89,2.51-4.82-.48-9.51-1.85-14.27-2.63v28.75c0,3.69,6.46,9.21,10.32,8.99l143.11.02c4.14.64,11.17-5.07,11.17-9.02V52.67h-33.58c-3.07,0-7.65-2.53-9.36-5.12-.32-.48-1.83-3.6-1.83-3.88V7.46ZM208.84,44.77l-31.6-31.6v28.75c0,.5,1.73,2.85,2.41,2.85h29.19ZM70.91,47.52c-49.14.41-79.69,54.26-54.25,96.59,23.75,39.51,80.08,41.29,106.68,3.69,29.68-41.96-1.15-100.7-52.43-100.28ZM160.84,200.88c5.3-5.23,3.61-11.66-.71-16.75-8.88-10.49-21.12-19.85-30.29-30.28l-1.09-.65-6.8,8.13-8.78,7.86c11.25,10.98,21.9,22.67,33.64,33.09,4.26,2.71,10.43,2.16,14.03-1.4Z"/>
      <path class="cls-1" d="M68.26,22.49l82.43-.11c4.22.5,5.41,4.81,1.95,7.24l-84.49.24c-4.42-.52-4.41-6.55.11-7.37Z"/>
      <path class="cls-1" d="M140.26,67.27c17.35,1.06,37.26-1.81,54.31-.11,6.94.69,6.54,7.26.88,7.9h-55.31c-5.82-.66-5.45-7.3.11-7.79Z"/>
      <path class="cls-1" d="M144.46,141.2c-2.46-2.7-.3-6.05,3.15-6.45,14.82-1.68,32.7,1.25,47.84,0,4.83.04,5.98,6.88.89,7.47-15.79-1.15-33.66,1.49-49.2.02-.96-.09-2-.3-2.69-1.05Z"/>
      <path class="cls-1" d="M198.59,91.02c2.69,2.69.29,6.04-3.14,6.43-13.73,1.56-30.3-1.17-44.34.01-4.72-.22-5.26-6.92-.44-7.48,14.52,1.06,30.96-1.38,45.25-.02,1.06.1,1.88.27,2.67,1.06Z"/>
      <path class="cls-1" d="M198.62,113.37c2.22,2.22.56,6.59-2.72,6.47h-45.24c-4.77-.64-4.27-7.29.45-7.49,14.29,1,30.29-1.29,44.37-.01.93.08,2.5.38,3.15,1.02Z"/>
      <path class="cls-1" d="M203.85,206.59c-1.75,1.72-4.72,2.91-7.14,3.17-2.86.31-14.47.47-16.77-.24-3.82-1.18-3.41-6.55.17-7.14,4.13-.68,15.5,1.22,18.22-1.1.85-.72,1.17-1.57,1.3-2.65.56-4.7-.81-11.26.09-15.71.85-4.2,6.93-4.27,7.38.76.35,3.85.43,12.93-.06,16.66-.25,1.9-1.83,4.91-3.19,6.25Z"/>
      <path class="cls-1" d="M162.2,157.25c9.8-1.63,23.44.97,33.65-.07,5.1.72,5.46,7.22-.84,7.85-10.21,1.02-22.05-.72-32.44-.03-5.18-.51-5.68-6.87-.37-7.76Z"/>
      <path class="cls-1" d="M120.94,44.88c4.88-.81,24.65-.75,29.7-.07,5.53.74,5.53,7.08,0,7.82s-23.87.73-29.33,0c-5.32-.71-5.38-6.93-.37-7.76Z"/>
      <path class="cls-1" d="M31.22,71.7c26.22-26.51,71.44-20.08,89.18,12.57,23.14,42.58-14.41,92.14-61.6,81.79C15.98,156.67.46,102.81,31.22,71.7ZM66.53,62.9c-34.52,3.07-54.6,41.43-37.89,71.86,20.31,36.99,75.95,31.87,88.77-8.26,10.74-33.62-15.77-66.73-50.88-63.61Z"/>
      <path class="cls-1" d="M41.92,108.52l56.08-.1c5.62.54,5.88,7.23,0,7.9h-55.32c-5.18-.61-5.77-6.38-.77-7.8Z"/>
      <path class="cls-1" d="M54.46,92.49c-2.26-2.69-.18-6.07,3.15-6.47,4.99-.59,20.98-.64,25.87.05s5.18,6.89.49,7.43c-8.53-.81-18.95,1.05-27.24,0-.68-.09-1.84-.52-2.27-1.02Z"/>
      <path class="cls-1" d="M54.46,132.25c.42-.5,1.58-.94,2.27-1.02,8.3-1.04,18.71.82,27.24,0,4.69.54,4.36,6.75-.49,7.43s-20.88.65-25.87.05c-3.33-.4-5.41-3.78-3.15-6.47Z"/>
    </g>
  </g>
</svg>