<?xml version="1.0" encoding="UTF-8"?>
<svg id="Capa_2" data-name="Capa 2" xmlns="http://www.w3.org/2000/svg" viewBox="0 0 220.53 250.26">
  <defs>
    <style>
      .cls-1 {
        fill: #b31524;
      }
    </style>
  </defs>
  <g id="Capa_1-2" data-name="Capa 1">
    <g>
      <path class="cls-1" d="M171.78,0c3.96.95,6.07,4.24,3.84,7.99l-28.22,34.77,33.92,27.52,28.56-34.87c8.12-5.02,9.5,5.59,10.22,11.32,3.88,30.83-18.88,56.51-49.06,59.79-2.18.24-4.87-.66-6.62.71-29.1,35.89-58.54,71.56-87.22,107.76-2.75,30.19-37.45,45.74-62.03,27.38-25.36-18.95-17.44-59.66,12.8-68.06,28.92-36.32,58.95-71.97,87.5-108.49-7.13-27.62,10.1-56.45,37.36-64.01l8.2-1.82h10.75ZM210.38,59.37c.29-2.7-.21-5.8,0-8.55l-25.38,30.57c-1.23,1.12-3.82.93-5.28.34l-42.16-34.07c-2.16-1.65-2.56-4.42-1.4-6.79,6.9-9.34,15.67-18.08,22.4-27.45.33-.45,1.89-2.31,1.48-2.67-23.1,3.15-38.09,24.23-36.18,47.17.36,4.29,3.46,9.13.72,12.9-30.76,37.19-60.49,75.32-91.63,112.15-21.4,4.68-30.76,30.68-16.1,47.45,17.94,20.52,50.94,7.1,50.93-19.46l91.28-112.99c2.79-2.53,6.86-1.02,10.5-1.22,19.58-1.09,38.7-17.5,40.81-37.38Z"/>
      <path class="cls-1" d="M33.85,199.02c20.93-2.73,24.77,29.67,4.22,32.07-21.97,2.57-25.05-29.35-4.22-32.07ZM35.34,208.76c-8.5.62-7.76,14.06,1.78,12.57,7.56-1.18,6.26-13.16-1.78-12.57Z"/>
    </g>
  </g>
</svg>