<?xml version="1.0" encoding="UTF-8"?>
<svg id="Capa_2" data-name="Capa 2" xmlns="http://www.w3.org/2000/svg" viewBox="0 0 351 323.26">
  <defs>
    <style>
      .cls-1 {
        fill: #b31524;
      }
    </style>
  </defs>
  <g id="Capa_1-2" data-name="Capa 1">
    <g>
      <path class="cls-1" d="M67.87,169.33c-7.18,12.48-15.01,24.77-21.25,37.7h106.94c.19-8.22,1.18-16.45,3.42-24.35.72-2.55,1.93-4.39,2.75-6.5h10.97c-16.08,36.04,1.79,79.41,39.22,92.06,55.82,18.87,107.13-36.29,84.17-90.69,3.59-.29,7.62.73,10.97-.69,7.83,20.59,7.53,41.88-2.16,61.94-1.14,2.37-7.04,10.85-6.67,12.3.11.43,4.69,5.27,5.05,5.27.81,0,3.52-5.95,9.22-2.36,5.52,3.48,15.09,15.66,20.24,20.89,6.29,6.4,13.95,11.24,18.31,19.43.51.96.28,2.17,1.93,1.8v13.03l-5.8,8.25c-25.29,21.25-45.81-21.53-63.75-34.33-3.64-5.78,2.58-8.31,2.32-9.82-.07-.39-4.79-5.09-5.19-5.16-37.03,25.53-83.95,17.65-110.49-18.36-1.24-1.68-4.03-7.21-5.4-7.63l-145.19-.14c-4.11-.42-7.7-2.4-10.97-4.79l-6.51-8.22v-13.03l19.2-31.53c3.75,1.22,7.77.51,11.65.69-6.62,11.57-13.14,23.24-19.59,34.92-1.85,3.44,2.87,11.01,6.22,11.01h140.88l-3.88-13.05-120.88-.32c-2.03-1.58-3.46-3.89-2.44-6.52,7.67-14.78,16.78-28.76,25.05-43.17,2.47,2.89,8.24.73,11.65,1.37ZM293.41,265.3c.75-.86-4.95-6.69-6.16-5.48-1.1,1.1,4.38,7.53,6.16,5.48ZM306.87,266.72c-.86.15-12.07,11.52-12.47,12.3-.34.66-.34.7,0,1.36.19.37,4.78,5.48,5.49,6.21,6.08,6.18,18.07,19.07,24.43,23.56,9.2,6.5,19.25-2.41,14.23-12.18-10.43-10.49-20.66-21.57-31.68-31.24Z"/>
      <path class="cls-1" d="M19.2,184.41C53.39,124.58,87.17,64.22,123.04,5.47c6.52-5.71,14.04-7.05,22.09-3.54,9.51,4.14,17.95,25.04,23.32,34.24,16.65,28.5,34.15,57.37,50.63,86.51,1.32,2.33.26,4.15,4.09,4.18,1.5.01,2.77-.68,4.1-.71,35.11-.94,65.32,17.88,77.8,50.73-3.34,1.41-7.38.4-10.97.69-22.24-52.71-100.19-53.41-123.4-1.37h-10.97c4.73-12.19,10.08-20.89,19.87-29.83,1.37-1.25,7.86-5.5,8.12-5.94.29-.49.19-.99.12-1.52l-50.74-88.85-1.26,1.13-67.97,118.15c-3.41-.64-9.18,1.51-11.65-1.37,25.41-44.26,50.57-88.7,76.33-132.76,3.32-2.81,7.09-2.16,9.24,1.6l55.76,96.79c.74.43,12.06-3.69,12.22-4.4L143.84,14.86c-3.71-5.32-10.87-4.85-14.57.27-32.34,56.92-65.93,113.15-98.42,169.97-3.88-.17-7.91.54-11.65-.69Z"/>
      <path class="cls-1" d="M139.16,180.98c-1.53.3-2.23.13-4.11.69-4.43-1.01-7.35-3.78-8.75-8.05-1.28-21.09-6.15-43.29-7.05-64.25-.39-9.22.84-17.27,10.52-21.07,14.86-5.84,25.33,5.7,24.46,20.35-1.26,21.32-5.56,42.86-7.01,64.29-1.13,4.47-3.62,7.17-8.06,8.05ZM137.1,166.58l6.21-62.07c-.05-5.02-4.79-7.86-9.45-5.96-4.32,1.76-3.77,6.23-3.63,10.13.64,17.28,4.9,35.27,5.6,52.67l1.28,5.22Z"/>
      <path class="cls-1" d="M139.16,180.98c-1.47,2.2-.16.95.96,1.43,19.25,8.25,2.44,31.71-11.07,20.68-8.62-7.04-3.96-18.48,6-21.43,1.89-.56,2.59-.38,4.11-.69Z"/>
      <path class="cls-1" d="M186.47,167.27c3.51,2.68,8.83.86,13.03,1.37-29.4,26.37-14.8,76.98,24.42,83.55,48.98,8.2,76.6-54.24,39.34-84.93,3.53-.97,7.06-.58,10.66-.69,1.32-.04,2.75.7,2.37-1.37,29.69,33.27,13.24,86.86-30.16,97.01-55.03,12.87-95.43-50.65-59.65-94.95Z"/>
      <path class="cls-1" d="M276.27,165.22c.38,2.07-1.05,1.33-2.37,1.37-3.59.11-7.13-.29-10.66.69-18.06-14.88-46.34-14.24-63.76,1.37-4.2-.51-9.52,1.31-13.03-1.37,22.98-28.45,65.44-29.36,89.81-2.06Z"/>
    </g>
  </g>
</svg>