<?xml version="1.0" encoding="UTF-8"?>
<svg id="Capa_2" data-name="Capa 2" xmlns="http://www.w3.org/2000/svg" viewBox="0 0 279.1 280.67">
  <defs>
    <style>
      .cls-1 {
        fill: #b31524;
      }
    </style>
  </defs>
  <g id="Capa_1-2" data-name="Capa 1">
    <g>
      <path class="cls-1" d="M148.68.01c.38,0,.76,0,1.14,0-.21,1.15.58.74,1.32.76,6.32.23,12.17,1.91,18.13,2.29.25.02.51-.01.76,0-.21,1.23.62.65,1.33.75,4.44.59,10.36,2.55,14.67,4.03,3.11,1.07,8.71,4.03,11.45,4.37.12.02.26-.01.38,0-.22.94.51.74,1.07,1.01,1.52.72,3.23,1.35,4.65,2.04,2.06,1,4.08,2.1,6.1,3.05.25.12.61.53,1.14.76.1.05.26-.04.38,0,.08.15.22.32.38.38.98.37.58.33,1.14.76,1.75,1.34,3.31,1.95,4.96,3.05.11.07.45.51.76.76.12.11.26.35.38.38.11.03.25,0,.38,0l13.35,10.48c4.46,4.71,9.56,8.94,13.72,13.92,3.45,4.12,8.22,10.7,11.06,15.25.99,1.58,1.66,3.6,2.85,5.35.37.55.4,1.2,1.34,1.14.04.11-.03.26,0,.38.23.86.14,2.2,1.14,1.91,0,.13,0,.25,0,.38-.09,1.4.49.96.73,1.45,5.46,11.49,10.34,23.35,12.61,36.13.13.71-.43,1.52.77,1.31.01.25,0,.51,0,.76l1.91,11.44c-.05,1.2-.08,2.62,0,3.81.03.44.02.82.38,1.14-.13,1.25.02,3.55,0,4.96-.03,3.04.09,6.11,0,9.15-.06,2.01.13,4.1,0,6.1-.15,2.28-.87,5.2-1.14,7.62-.32,2.82-.96,5.57-1.14,8.39-.6.66-.8,1.79-.97,2.65-.29,1.47-.79,3.58-.93,4.97-.03.25.02.51,0,.76-1.73,4.68-2.96,9.51-4.67,14.2-4.86,13.33-12.18,26.44-20.87,37.65-2.57,3.31-6.22,7.3-9.28,10.54-1.42,1.5-6.49,5.52-6.73,7-2.26.65-3.13,2.32-4.86,3.8-1.14.98-3,1.49-3.52,3.06-9.66,6.92-19.34,12.36-30.22,17.26-.57.26-1.25.05-1.04,1.03-.23.03-.7-.06-.76,0-.9-.02-1.32-.26-1.14.76-.13.01-.26-.02-.38,0-3.99.58-8.56,2.79-12.64,3.94-5.89,1.67-11.97,3-18.02,3.71-.63.07-1.32.23-1.75.73-.38.02-.76-.02-1.14,0-3.41.16-7.03.96-10.29,1.14-1.64.09-3.31-.05-4.96,0-1.01.03-2.04-.01-3.05,0-.89.01-1.78,0-2.67,0-.13,0-.25,0-.38,0-1.01,0-2.04.02-3.05,0-.25,0-.51,0-.76,0-.76-.01-1.53.02-2.29,0-.07,0-.42-.37-.76-.38-.38-.01-.76.02-1.14,0-1.89-.32-3.81-.54-5.72-.76-.37-.04-.77.05-1.14,0-6.39-.78-12.46-2.26-18.68-3.81-.32-.08-.81.07-1.14,0,.28-1.23-.9-.66-1.91-.76-.23-.1-.44-.25-.76-.38-3.02-1.18-6.23-2.09-9.14-3.25-6.46-2.57-13.43-7.41-20.4-6.66-1.1.12-1.57.64-2.1.76-.49.11-.87.32-1.14.38-6.09,1.42-12.12,2.97-18.17,4.54-.67.18-1.51-.4-1.28.8-.37,0-.79-.04-1.14,0l-.76.38c-.12.02-.26-.02-.38,0-.62.1-.72.37-.76.38-.35.06-.79-.06-1.14,0-1.02.17-2.19,0-3.05.76-.24.04-.52-.04-.76,0-.86.15-2.07.54-3.05.76-8.7,1.99-17.49,5.03-25.92,7.24-.46.12-1.23,0-1.91.17-1.18.31-7.45,2.23-8,1.73,1.82-5.92,3.21-11.97,4.68-17.99.32-1.33,1.11-2.76,1.41-4.11.16-.74.27-1.53.38-2.29,1.85-5.48,3.42-11.09,4.87-16.69.15-.57,0-1.22.09-1.61.88-3.47,1.95-5.42,2.29-9.15,1.25.24.61-.64.76-1.52.04-.24-.04-.52,0-.76s.28-1.08.38-1.52c.03-.12-.03-.26,0-.38,0-.03.3-.07.38-.38s-.08-.83,0-1.14c.85-3.15,2.13-5.97,2.67-9.53.14-.92.36-1.42.38-2.67,0-.25.01-.51,0-.76-.09-1.57-.27-2.35-.76-3.81-.32-.97-.34-2.28-1.52-2.67-.14-.05-.55-.02-.76,0v-.38c0-.25-.01-.51,0-.76,0-.05.5-.38.23-.74-2.45-5.11-4.75-10.34-6.71-15.65-.23-.62-.21-1.44-.38-1.91-.09-.25-.37-.35-.38-.38-.12-.33-.28-.53-.38-.76-.18-.42.16-1.34-.76-1.52-.02-.38.04-.77,0-1.14-.01-.13.02-.26,0-.38-.2-1.31-.91-2.07-1.14-3.05-.75-3.19-1.56-6.57-2.18-9.83-.77-4.06-.96-8.27-2.02-12.28,0-.76.02-1.53,0-2.29-.02-.89-.37-1.65-.38-1.91-.01-.38.02-.76,0-1.14-.13-3.17-.28-6.36-.38-9.53-.03-.89.02-1.78,0-2.67,0-.13,0-.25,0-.38,0-.76,0-1.53,0-2.29.6-1.05.36-2.28.38-3.43.02-1.01.01-2.04,0-3.05,0-.63.02-1.27,0-1.91,1-2.8,1.04-5.83,1.14-8.77,1.2.22.65-.59.77-1.31.32-1.9,1.07-4.54,1.13-6.32,0-.24.03-.53,0-.76.49-.19.38-.72.38-1.14,0-.25,0-.51,0-.76l5.72-17.92c.23-.62.29-1.25.38-1.91,4.93-9.99,9.67-19.86,16.24-28.94,1.73-2.39,8.35-9.59,8.93-11.47,1.53-.94,2.06-1.86,3.05-3.43.12-.2.3-.72.38-.76,2.58-1.37,1.43-.77,2.67-2.67.22-.34,5.21-4.55,6.1-5.34,1.5-1.31,3.58-3.04,4.96-4.19s2.79-2.06,4.19-3.05c2.81-1.99,5.95-4.27,8.77-6.1.16-.1.26-.3.38-.38,4.94-3.18,13.66-7.51,19.06-9.91.27-.12.98-.17,1.52-.38.8-.31,1.72-.35,2.29-1.14.13-.01.25,0,.38,0,.42-.02.95.12,1.14-.38.13-.02.27.03.38,0,7.14-1.66,13.66-4.79,21.35-6.1.24-.04.52.04.76,0,1.84-.31,4-.27,5.72-1.14.25-.02.51.02.76,0,9.79-.87,19.28-2.07,28.97-1.91ZM133.43,23.65c-1.01.06-2.05-.08-3.05,0l-1.52.38c-1.88.17-3.84.14-5.72.38-7.83,1.01-16.06,2.96-23.25,6.1-2.29.32-5.11,2.13-7.24,3.05-3.79.56-13.6,7.16-17.16,9.53-2.8,1.87-5.19,3.79-7.62,5.72-1.3,1.02-2.79,1.81-4.19,3.05-.14.12-.25.26-.38.38-.06.06.06.32,0,.38-.06.05-.44.09-.76.38-.68.62-1.24,1.28-1.91,1.91-.13.13-.25.26-.38.38-.06.06.06.32,0,.38-.04.04-.43.06-.76.38-.39.38-.76.76-1.14,1.14-.66.66-.94,1.32-1.14,1.52-.5.52-1.75,1.3-2.67,2.29-.12.13-.26.25-.38.38-1.65,1.79-3.44,3.82-4.96,5.72-1.2,1.5-2.63,3.29-3.43,4.96-.8.64-.56.9-.76,1.14-.25.3-.26.57-.38.76-.24.38-1.48.71-1.14,1.91-1.16-.02-2.78,3.91-3.5,5.08-8.25,13.37-11.74,24.79-14.42,40.29-.15.88-.62,2.05-.76,3.05-.03.24.03.52,0,.76-.1.77-.3,1.51-.38,2.29-.03.25.02.51,0,.76s.02.51,0,.76c-.01.13,0,.25,0,.38-.11,1.57-.33,3.25-.38,4.96-.11,3.92-.16,8.29,0,12.2.05,1.19.32,2.21.38,3.05.25,3.25.63,5.94,1.14,9.15.18,1.11.6,2.16.76,3.05.06.35-.07.8,0,1.14.12.64.25,1.27.38,1.91.7,3.36,1.16,6.75,2.44,9.96,1.65,4.14,3.19,9.05,5.24,13.43,3.33,7.13,8.97,14.2,8.33,22.54-.42,5.41-3.1,10.53-4.53,15.68-1.23,4.45-2,9.06-3.09,13.49-.04.14-.3.41-.38.76-.03.12.03.26,0,.38-.26,1.06-2.34,7.18-1.9,7.62.85-.27,5.91-1.27,6.1-1.52l14.49-3.81c.25-.03.51.02.76,0,1.71-.16,5.18-1.54,6.86-2.29.38-.02.77.04,1.14,0,7.82-.83,8.97-4.41,17.92-1.91.22.06.56-.06.76,0-.16,1.11,2.08,1.52,3.05,1.91h.38c-.05.23,0,.51.01.74,4.1,1.89,8.11,4.13,12.3,5.81,2.37.95,5.87,2.39,8.27,2.59.13.01.25,0,.38,0,.25.74.92.75,1.52.96,2.83.98,8.59,2.68,11.44,2.86.25.02.51,0,.76,0,8.41,2.02,17.1,2.02,25.74,1.91.65,0,1.7.24,2.09-.39.42.08,1.04-.01,1.52,0,11.25.29,25.32-4.49,35.85-8.2.61-.21,1.35.08,1.13-.95.11-.04.27.04.38,0,7.35-2.58,12.25-6.09,18.3-10.29.29-.2.99-.4,1.52-.76.97-.66,3.37-1.35,3.43-2.67.25-.13.47-.21.76-.38,2.04-1.19,2.8-1.56,4.19-3.43,2.05-.45,2.11-1.58,3.46-2.83.86-.8,2.44-.78,2.64-2.5,1.08-.83,1.59-1.13,2.67-2.29.24-.26.51-.49.76-.76.3-.33.34-.72.38-.76.25-.26.52-.51.76-.76.12-.13.26-.25.38-.38,2.69-2.9,7.61-7.56,9.15-11.06.09-.21.4-.43.38-.76.89-.82.7-.94,1.14-1.52,3.3-4.32,5.1-7.87,7.67-12.64,1.17-2.17,4.47-7.17,4.91-9.47.06-.3.01-.8,0-1.14,1.01-2.41,3.3-6.66,3.43-9.15.01-.25-.02-.51,0-.76,2.07-5.05,2.73-10.44,3.48-15.78,4.52-32.47-3.52-63.59-24.06-88.68-.12-.15-.28-.26-.38-.38-10.89-13.14-20.88-22.66-36.22-30.5-3.49-1.78-10.48-5.74-14.11-6.1-.13-.01-.25,0-.38,0-.24-.73-.93-.75-1.51-.96-5.65-2.08-11.57-3.59-17.55-4.37l-8.77-1.14c-1-.27-2.06-.24-3.05-.38-.42-.06-.85-.33-1.52-.38-.63-.04-1.27.02-1.91,0-1.01-.04-2.04.01-3.05,0-2.01-.03-4.09-.08-6.1,0-1.15.05-2.3.34-3.05.38Z"/>
      <path class="cls-1" d="M84.14,145.28c-9.79-14.53-18.65-30.07-13.45-48.33,2.38-8.38,10.25-21.23,19.78-22.15,1.54-.15,8.84.63,10.15,1.21,1.83.81,1.59,2.82,3.34,3.33.37.9.78,1.78,1.14,2.67,2.44,5.99,5.08,11.94,7.35,18,.83,2.21,3.2,7.64,3.25,9.63.08,3.61-3.86,8.59-6.03,11.43-2.43,3.17-5.75,4.59-4.86,9.45.13.69.8,2.7,1.81,2.57.02,1.61,1.24,3.2,2.12,4.55,2.48,3.79,6.01,7.94,8.93,11.46.43.52-.32.49,1.14,1.14.23.1.59.37.76.38-.29,1.51.81,1.24,1.14,1.52,9.34,7.82,15.05,13.74,26.55,19.01,3.8,1.74,9.43,4.94,13.11,1.78,3.78-4.93,8.07-9.48,11.42-14.69,1.15-.19,2.33-1.74,3.05-1.91.51-.12,3.03-.11,3.55,0,.28.06.3.64.74.86,4.66,2.32,9.8,4.15,14.39,6.37,3.47,1.68,10.99,5.13,13.85,7.31,1.09.83,1.66,2.02,2.55,2.6-.28,3.09-.24,6.61-.86,9.62s-2.27,5.91-3.33,8.67c-1.23.38-2.5,2.41-2.67,3.81-1.73.85-3.06,2.38-4.68,3.52-4.65,3.26-9.61,5.12-15.14,6.4-.28-.03-1.46-.04-1.52,0l-1.14.38c-1.44-.09-3.12-.05-4.57,0-.25,0-.51-.02-.76,0-.37.03-.8-.05-1.14,0l-10.67-1.91c-3.55.26-10.19-3.81-12.96-3.81-.1-.37-.44-.35-.76-.38-.34-.03-.92.08-1.14,0-2.95-1.12-6.25-3.7-9.53-4.57-.14-.04-.35-.33-.76-.38.2-.92-.47-.79-1-1.08-2.35-1.26-4.82-2.54-7.1-3.9-1.49-.89-4.72-3.85-6.39-4.18-.12-.02-.26.01-.38,0-.38-1.19-1.55-1.13-2.29-1.52-.23-.13-.59-.46-1.14-.76.27-.98-.66-.79-1.14-1.14-.59-.44-1.19-1.08-1.91-1.52-.68-.34-.68-1.33-1.52-1.14-1.01-1.2-2.37-2.5-3.81-3.05-.19-1.21-.57-.59-.76-.76-.79-.71-1.84-1.05-1.91-1.14-2.35-3.05-3.84-4.13-6.48-6.86-.13-.13-.26-.25-.38-.38-5.83-6.09-13.15-15.03-17.92-22.11Z"/>
    </g>
  </g>
</svg>