<?xml version="1.0" encoding="UTF-8"?>
<svg id="Capa_2" data-name="Capa 2" xmlns="http://www.w3.org/2000/svg" viewBox="0 0 186.41 257.18">
  <defs>
    <style>
      .cls-1 {
        fill: #b31524;
      }
    </style>
  </defs>
  <g id="Capa_1-2" data-name="Capa 1">
    <g>
      <path class="cls-1" d="M122.13,15.48c1.5-.73.93-2.67,7.19-3.53,21.79-2.99,12.98,13.76,21.46,23.05,4.61,5.05,21.17,6.14,23.21,10.9,3.85,9.01-3.38,17.57-1.63,25.59.4,1.85,6.57,10.58,8.21,12.72,2.63,3.44,5.8,1.33,5.85,8.85.07,10.95-12.36,13.77-14.05,21.6s5.62,18.14,1.87,25.92c-2.58,5.34-16.75,5.63-22.05,10.55-6.23,5.79-5.28,18.64-11.36,22.67-7.13,4.74-17.77-2.92-25.48-1.5-7,1.29-13.57,13.65-20.83,14.83-7.6,1.24-15.7-13.31-23.02-14.83-7.8-1.62-17.21,5.8-24.52,1.99-7.31-3.81-5.83-17.15-12.33-23.17-5.41-5.01-20.7-5.66-22.47-11.54-2.58-8.55,3.94-17.29,2.29-24.92-1.72-7.98-19.19-14.71-13.22-26.6,3.11-2.51,12.57-13.21,13.24-16.59,2.31-11.53-12.32-23.53,6.62-30.28,4.06-1.45,2.97-.3,7.49-2.57,2.2-1.11,4.42-.88,6.75-2.91,6.46-5.62,3.37-21.67,13-23.85,7.72-1.75,16.24,2.18,23.68,3.97L88.02,1.57c10.28-8.17,24.89,18.39,34.1,13.9ZM110.15,153.91c84.02-29.23,42.26-143.36-35.1-121.01-51.33,14.83-60.57,86.89-15.69,113.27,15.65,9.2,28.16,12.16,45.72,8.84,1.67-.32,3.52,1.11,4.35.76.23-.1.27-1.71.71-1.87Z"/>
      <path class="cls-1" d="M41.92,182.72c2.96,2.24,23.43-1.78,28.46-.8,4.04.78,7.92,6.24,11.06,8.94,2.21,1.89,5.67,1.19,6.41,4.91l-23.58,61c-5.62,3.96-15.28-21.6-20.64-23.75-9.57,1.91-19,5.64-28.9,5.37l22.7-59.53c3.52-1.02,3.27,2.93,4.5,3.87Z"/>
      <path class="cls-1" d="M117.17,236.59c-1.5-1.47-17.57-35.34-18.18-37.87-1.53-6.29,3.66-5.51,6.38-7.86,2.93-2.53,8.17-9.17,11.36-9.98,3.9-.98,14.93,3.13,22.08,2.26,11.47-1.4,7.6-10.89,16.06,6.55,1.67,3.45,11.9,25.12,11.49,26.6-1.29,4.64-19.03-1.46-23.52-1.83-2.19-.18-4.52-.66-6.67.06-3.82,1.29-11.01,23.8-15.6,23.68-.81-.02-2.75-.97-3.4-1.61Z"/>
      <path class="cls-1" d="M127.2,68.75c-5.24,6.55-13.74,22.26-17.29,30.2s-5.71,19.95-9.02,26.43c-2.8,5.49-16.96,5.12-21.39,2.51-1.65-.97-10.34-14.1-13.02-17.11-3.37-3.79-7.67-7.84-11.4-11.36-1.83-1.73-6.13-1.1-2.05-4.88,1.57-1.46,15.13-2.58,17.38-2.18,1.02.18,9.99,8.81,11.62,9.95,1.21.84,1.41,1.97,3.55,1.39,1.3-6.23,4.33-11.94,7.39-17.43,3.5-6.27,13.52-21.94,18.55-26.16,1.91-1.61,3.78-.37,4.56-.68.85-.35.14-2.32,2.74-2.62,3.55-.41,12.16.11,14.93,2.28,4.65,3.64-4.96,7.64-6.57,9.65Z"/>
    </g>
  </g>
</svg>