<?xml version="1.0" encoding="UTF-8"?>
<svg id="Capa_2" data-name="Capa 2" xmlns="http://www.w3.org/2000/svg" viewBox="0 0 339.83 339.63">
  <defs>
    <style>
      .cls-1 {
        fill: #b31524;
      }
    </style>
  </defs>
  <g id="Capa_1-2" data-name="Capa 1">
    <g>
      <path class="cls-1" d="M339.8,169.71c1.84,87.92-71.15,164.89-158.59,169.64C17.73,348.22-63.99,144.88,60.05,40.26c67.51-56.94,167.59-53.08,230.16,9.05,1.12,0,13.24-14.24,15.86-15.92.93-.6,1.51-.94,2.68-.72l18.84,71.66-72.6-17.9c-.21-1.17.12-1.75.72-2.68,1.54-2.4,16.19-14.81,15.58-16.24C198.2-5.9,71.69,21.71,35.61,118.8c-38.69,104.11,48.02,209.93,157.46,193.04,68.84-10.63,121.78-72.21,120.99-142.13h25.74Z"/>
      <path class="cls-1" d="M160.35,122.01v62.47c0,4.12,4.64,2.36,7.57,2.65v14.39c0,.39-7.57-.85-7.57,1.14v16.28h-15.14v-17.41h-28.39c-.08,0-1.14-1.06-1.14-1.14v-12.11l27.1-64.52,1.29-1.73h16.28ZM145.21,187.13v-37.1l-14.39,37.1h14.39Z"/>
      <path class="cls-1" d="M64.19,141.32c1.66-15.69,12.4-22.39,27.54-20.73,16.98,1.87,20.82,18.76,17.54,33.25-1.62,7.15-5.64,13.08-9.95,18.82-7.37,9.82-20.3,18.38-19.23,31.88h27.64c.08,0,1.14,1.06,1.14,1.14v13.25h-44.67v-14.01c0-26.65,33.59-36.77,30.22-63.53-1.35-10.71-15.08-6.93-15.08-.83v14.01h-14.01c-.08,0-1.14-1.06-1.14-1.14,0-3.8-.38-8.48,0-12.11Z"/>
      <polygon class="cls-1" points="276.2 122.01 276.2 135.26 251.97 218.93 236.83 218.93 260.3 135.64 230.01 135.64 230.01 122.01 276.2 122.01"/>
      <path class="cls-1" d="M170.95,218.93l38.37-96.97c2.37-1.54,9.12.96,12.36.06l-.33,3.07-36.77,93.84h-13.63Z"/>
    </g>
  </g>
</svg>