<?xml version="1.0" encoding="UTF-8"?>
<svg id="Capa_2" data-name="Capa 2" xmlns="http://www.w3.org/2000/svg" viewBox="0 0 180.75 285.98">
  <defs>
    <style>
      .cls-1 {
        fill: #b31524;
      }
    </style>
  </defs>
  <g id="Capa_1-2" data-name="Capa 1">
    <g>
      <path class="cls-1" d="M155.66,155.6c-1.18,3.82-10.8,1.42-11.57,2.22-.62.64,1.15,5.85-2.41,7.03-2.4.79-6.47-.06-9.6.56-7.22,1.41-14,4.8-21.41,5.46l23.24,7.95c8.14,16.39-13.7,13.7-23.26,18.9,5.27,2.51,23.63,4.14,24.73,10.19,2.06,11.34-15.36,11.48-23.26,13.78-3.91,3.82,26.33,7.2,27.61,7.94,3.28,1.91,2.53,9.11,2.88,9.47,1.03,1.05,17.28-5.29,28.3,2.91,13.78,10.26,13.01,31.34-1.68,40.4-14.83,9.14-37.54.02-36.79-18.63l-3.72,7.35-79.02-.1c-.42-.32,4.41-7.16-1.44-5.8-.92,24.13-37.81,28.27-46.16,6.24-4.17-10.98-2.15-21.34,6.92-28.76,11.42-9.33,28-2.51,29.06-3.59.36-.36-.4-7.56,2.88-9.47,3.95-2.3,22.46-1.19,27.6-7.24-4.12-2.16-20.41-4.45-22.52-7.95-7.54-12.54,17.32-13.69,23.99-16.73-9.58-5.2-31.41-2.52-23.26-18.9l23.24-7.95c-7.41-.65-14.19-4.05-21.41-5.46-3.14-.61-7.2.24-9.6-.56-3.56-1.18-1.79-6.38-2.41-7.03-.55-.57-11.57,1.18-11.57-2.22v-56.62c0-.15,2.02-2.18,2.18-2.18h126.31c.15,0,2.18,2.02,2.18,2.18v56.62ZM48.23,105.51h-15.97v31.94h15.97v-31.94ZM72.91,105.51h-17.42v31.94h17.42v-31.94ZM99.04,105.51h-17.42v31.94h17.42v-31.94ZM125.18,105.51h-17.42v31.94h17.42v-31.94ZM146.95,105.51h-14.52v31.94h14.52v-31.94ZM116.46,157.78h-52.27l26.63,8.22,25.63-8.22ZM115,183.93c-6.91.23-19.41-7.16-25.17-6.86-6.14.32-17.44,6.53-24.2,7.57,7.98,1.88,17.05,6.89,25.42,6.65,3.34-.1,10.79-1.18,14.34-1.64,1.05-.14.97-2.34,2.01-2.73,2.34-.88,7.22-.47,7.6-2.99ZM113.56,211.48c-.22-2.27-2.22-2.19-3.73-2.79-2.93-1.16-16.63-5.37-19.01-5.5-5.65-.29-15.68,6.24-22.28,5.41-.58,3.74.36,2.26,2.05,3.03,2.49,1.14,16.88,5.5,19.13,5.6,6.4.3,16.62-6.45,23.83-5.75ZM116.46,239.08c.44-2.45-.53-3.04-2.53-4.01-14.19-6.87-33.02-6.87-47.21,0-2,.97-2.97,1.56-2.53,4.01h52.27ZM21.71,249.5c-16.64,3.43-8.6,31.44,8.19,22.78,13.67-7.05,4.31-25.36-8.19-22.78ZM153.82,249.5c-20.2,4.2-5.2,35.33,10.66,20.91,9.08-8.26.8-23.3-10.66-20.91Z"/>
      <g>
        <path class="cls-1" d="M74.14.04c1.72.37,3.44.72,5.05,1.45.94.43,1.83.81,2.39,1.73,1.19,1.93.53,4.34-1.51,5.3-.85.4-5.38,1.74-5.69,2.22-.16.26,1.15,2.22,1.36,2.29.33.11,2.97-1.1,3.59-1.3,2.1-.69,4.29-1.26,6.5-1.48-.96-2-1.23-4.09-.07-6.08,2.2-3.8,8.05-3.52,9.9.45.92,1.98.61,3.72-.28,5.63,2.38.25,4.74.87,7,1.65.56.19,2.63,1.2,2.96,1.17s1.67-2.04,1.5-2.32c-.31-.48-4.84-1.82-5.69-2.22-2.04-.96-2.7-3.37-1.51-5.3s5.2-2.56,7.27-3.18c1.22.09,2.59-.12,3.79,0,8.71.88,15.97,9.39,14.98,18.2-.35,3.13-4.06,4.26-6.34,2.06-.69-.66-3.27-3.82-3.98-3.94-.3-.05-1.47,1.73-1.53,2.05-.09.51.23.38.5.63,4.19,4.06,7.44,8.62,9.38,14.17,4.85,13.82.75,29.14-10.35,38.57.89,1.86,3.12,3.43,3.77,5.41,1.52,4.64-3.17,8.78-7.58,6.76-2.13-.97-4.07-4.64-5.7-6.35-8.38,3.34-17.91,3.4-26.29.04-.43.08-3.65,4.61-4.4,5.31-4.13,3.85-10.8-.2-9.04-5.76.62-1.95,2.91-3.56,3.77-5.4-11.57-9.81-15.49-25.99-9.77-40.12,1.97-4.86,5.04-9.01,8.8-12.61.2-.19.56-.18.5-.47-.14-.39-1.24-2.26-1.54-2.22-1.18.18-3.89,4.72-5.83,5.05-6.57,1.14-4.53-8.48-2.92-11.82C59.46,4.7,64.88.59,70.36.04h3.79ZM79.2,5.76c.8-.83-.62-1.47-1.21-1.75-8.37-3.86-18.78,2.13-19.62,11.28-.09.94-.41,4.26,1.35,3.2,3.9-4.56,8.82-8.3,14.32-10.74.8-.36,4.94-1.75,5.17-1.99ZM122.66,18.45c.58-.58.02-4.15-.21-5.07-2.05-8.15-11.2-12.76-19.01-9.47-.86.36-2.25.89-1.31,1.97,7.68,2.3,14.26,6.77,19.58,12.69.25.15.75.07.94-.13ZM89.9,4.36c-2.7.5-2.89,4.73.07,5.45,4.24,1.03,4.77-6.35-.07-5.45ZM69.55,16.66c.16.09.32,0,.47-.07.26-.11,2.98-1.89,3.06-2.06.14-.28-1.16-2.23-1.35-2.29-.33-.1-3.46,2-3.5,2.23.22.29,1.21,2.12,1.32,2.18ZM111.65,16.66c.11-.06,1.1-1.9,1.32-2.18-.04-.23-3.17-2.33-3.5-2.23-.2.06-1.5,2.01-1.35,2.29.09.16,2.81,1.95,3.06,2.06.14.06.31.16.47.07ZM88.1,12.77c-24.7,1.69-38.18,30.22-24.06,50.66,14.1,20.42,45.4,17.79,55.84-4.7,10.48-22.57-7.15-47.65-31.78-45.97ZM70.04,73.68c-1.07,2.07-4.66,4.26-2.86,6.86.84,1.21,2.59,1.38,3.74.53.42-.31,3.66-4.26,3.69-4.56.02-.23-.1-.25-.25-.36l-4.32-2.48ZM111.16,73.68l-4.32,2.48c-.15.11-.27.13-.25.36.03.29,3.27,4.25,3.69,4.56,1.15.85,2.91.65,3.74-.53,1.81-2.58-1.8-4.81-2.86-6.86Z"/>
        <path class="cls-1" d="M132.73,41.88c.12,1.91.15,4.86,0,6.75s-.67,4.43-1.07,6.26c-.33,1.51-1.16,4.95-1.86,6.21s-2.75.86-2.68-.69c3.11-8.59,3.69-17.64,1.32-26.5-.29-1.09-1.46-3.88-1.27-4.75.26-1.17,2.04-1.32,2.63-.24.7,1.26,1.53,4.7,1.86,6.21.45,2.03.94,4.75,1.07,6.75Z"/>
        <path class="cls-1" d="M52.2,28.24c1.02-.23,1.88.28,1.87,1.36-3.12,8.63-3.68,17.6-1.32,26.51.27,1.03,1.26,3.34,1.31,4.13.13,1.71-1.89,2.14-2.62.96-.39-.62-1.02-2.86-1.26-3.68-2.3-8.05-2.53-20.68,1.11-28.38.21-.44.37-.79.9-.91Z"/>
        <path class="cls-1" d="M88.26,15.57c24.12-1.76,40.3,24.66,27.26,45.23-11.72,18.48-38.84,18.21-50.17-.49-11.34-18.71,1.19-43.16,22.91-44.74ZM88.76,18.37c-20.74,1.42-31.92,25.14-19.85,42.17,11.24,15.85,35.48,14.52,44.93-2.41,10.35-18.55-3.95-41.21-25.08-39.76Z"/>
        <path class="cls-1" d="M90.23,29.55c.91-.2,1.66.35,1.82,1.24l.06,8.67c.08.23,1.18.58,1.51.79,1.87,1.16,2.8,3.31,2.58,5.49-.06.58-.69,1.9-.63,2.11.22.87,3.22,2.08,1.7,3.73-1.6,1.74-2.96-1.4-3.81-1.62-.17-.04-1.64.59-2.26.64-4.68.36-7.72-4.29-5.44-8.41.83-1.49,1.91-1.98,3.35-2.74.3-2.66-.33-5.94.04-8.53.08-.6.45-1.24,1.09-1.38ZM90.06,42.24c-2.82.46-3.08,4.86-.13,5.49,4.48.95,4.55-6.2.13-5.49Z"/>
        <path class="cls-1" d="M90.23,21.15c.99-.22,1.71.42,1.84,1.38.08.59.1,2.53-.02,3.08-.35,1.56-2.66,1.49-2.92-.14-.18-1.1-.3-4.02,1.1-4.32Z"/>
        <path class="cls-1" d="M90.23,63.32c.99-.22,1.71.42,1.84,1.38.08.59.1,2.53-.02,3.08-.35,1.56-2.66,1.49-2.92-.14-.18-1.1-.3-4.02,1.1-4.32Z"/>
        <path class="cls-1" d="M68.01,43.56c1.05-.19,3.85-.32,4.25.94.72,2.26-2.6,2.14-3.96,1.98-2.06-.23-2.05-2.61-.29-2.93Z"/>
        <path class="cls-1" d="M110.14,43.56c1.05-.19,3.85-.32,4.25.94.72,2.26-2.6,2.14-3.96,1.98-2.06-.23-2.05-2.61-.29-2.93Z"/>
        <path class="cls-1" d="M76.24,57.56c1.35-.36,2.25.79,1.73,2.06-.1.24-2.19,2.36-2.45,2.49-1.31.68-2.61-.33-2.11-1.78.16-.47,2.36-2.64,2.83-2.77Z"/>
        <path class="cls-1" d="M104.05,57.56c1.15-.26,2.78,1.38,3.41,2.29,1.04,1.5-.04,3-1.67,2.33-.23-.1-2.25-2.08-2.42-2.35-.5-.8-.31-2.04.69-2.26Z"/>
        <path class="cls-1" d="M107.49,28.1c1.24,1.24-.91,3.24-1.91,3.98-1.35,1-2.94.07-2.38-1.56.12-.36,1.68-1.95,2.05-2.23.71-.54,1.53-.91,2.25-.19Z"/>
        <path class="cls-1" d="M77.7,32.1c-.43.42-1.04.49-1.6.31-.31-.1-2.53-2.28-2.66-2.6-.7-1.71.97-2.75,2.51-1.52.95.75,2.96,2.61,1.75,3.81Z"/>
      </g>
    </g>
  </g>
</svg>