<?xml version="1.0" encoding="UTF-8"?>
<svg id="Capa_2" data-name="Capa 2" xmlns="http://www.w3.org/2000/svg" viewBox="0 0 293.88 336.22">
  <defs>
    <style>
      .cls-1 {
        fill: #b31524;
      }
    </style>
  </defs>
  <g id="Capa_1-2" data-name="Capa 1">
    <g>
      <path class="cls-1" d="M101.65,195.17c2.42-.11,4.88.08,7.31,0-.08,1.44-.04,2.94,0,4.39.07,2.96.3,4.53.73,7.31.52,3.38,1.63,5.49,2.19,8.04.67,3.05,3.68,20.46,5.11,21.57,1.3,1.01,1.44-.19,2.08-.87,2.4-2.56,4.08-6.04,5.97-8.28.92-1.09,2.42-2.18,3.65-3.65,1.53-1.82,9.91-12.18,10.96-12.42,1.78-.4,5.86,0,8.04,0h7.31c.23.93,2.22,2.67,2.92,3.65,1.66,2.33,3.56,3.93,5.12,5.85.53.65,1.17,1.09,1.46,1.46,1.87,2.33,3.87,4.91,5.85,7.31.22.27.51.47.73.73.79.94,3.57,6.32,4.76,6.57,2.35.51,2.19-5.28,2.55-6.57.27-.97.46-1.99.73-2.92,1.98-6.94,4.03-13.21,5.12-20.46.41-2.73.48-4.64.73-7.31.14-1.52.69-3.62.73-4.39,2.67.05,5.37-.08,8.04,0,.56.02,2.1-.11,2.19,0,.46.52-.56,6.17.1,7.21.45.71,11.16,3.1,13.05,3.76,1.1.38,2.31,1,3.65,1.46,6.31,2.18,12.72,4.35,19,6.58,4.95,1.76,10.65,3.08,15.35,5.12,4.36,1.89,11.72,6.42,15.35,9.5.39.33.9.96,1.46,1.46,1.45,1.29,5.44,5.2,6.58,6.58.22.27.54.48.73.73,1.22,1.58,8.27,13.88,8.77,15.35s.93,5.82,1.46,8.04c.59,2.45.97,4.85,1.46,7.31,1.01,5.09,2,10.24,2.92,15.35.52,2.88.96,5.87,1.46,8.77.35,1.99.38,4.5.73,6.58.48,2.88,1.78,6.32,2.19,8.77,1.52,9.08,2.32,18.58,3.65,27.77v.73H.06c-.28-2.26.45-4.39.73-6.58.3-2.32.36-5.02.73-7.31.82-5.08,2.08-10.23,2.92-15.35.46-2.76.34-5.68.73-8.04.33-2.02,1.03-4.81,1.46-7.31.46-2.65.99-5.36,1.46-8.04.43-2.41,1.01-4.88,1.46-7.31.87-4.68,1.16-11.08,2.19-15.35.32-1.31,2.24-6.26,2.92-8.04,1.82-4.73,4.96-10.57,8.04-14.62s7.19-7.91,10.96-10.96c1.51-1.22,4.31-3.46,5.85-4.39.37-.22.96-.46,1.46-.73,1.82-1,4.58-2.1,6.58-2.92,4.94-2.03,10.43-4.11,15.35-5.85,2.62-.92,5.54-2.07,8.04-2.92,5.17-1.77,10.74-3.22,16.08-5.12,2.12-.75,4.43-1.47,6.58-2.19,3.54-1.19,4.14,1.38,4.39-3.65.07-1.46-.06-2.93,0-4.39,1.21-.04,2.44.06,3.66,0ZM93.61,215.63c-2.36.73-4.91,1.43-7.31,2.19-5.21,1.66-10.2,3.32-15.35,5.12-2.71.95-5.45,1.98-8.04,2.92-5.94,2.17-9.36,2.71-15.35,5.85s-10.11,5.92-14.66,11.32c-.79.94-.56,2.38-.69,2.56-.09.12-1.56.17-2.53,1.47-1.32,1.76-1.71,4.08-2.58,5.84-3.14,6.34-3.69,8.43-5.12,15.35-.55,2.66-.97,5.36-1.46,8.04-.47,2.53-.37,5.09-.73,7.31-.43,2.66-1.03,5.32-1.46,8.04-.38,2.41-1.13,4.78-1.46,7.31-.21,1.61-1.2,3.28-.64,5.03.62,1.01,10.39,1.28,12.34,1.55.08.01.2.56,1.46.73,1.16.16,2.49-.15,3.65,0,.08.01.19.58,1.46.73,1.62.19,3.48-.18,5.12,0,3.8.41,7.73,2.05,11.7,1.46.04-.48-.03-.97,0-1.46.06-1.16.09-2.5,0-3.65.95-.35.7-1.39.73-2.19.03-.73-.06-1.47,0-2.19.21-2.45.52-4.86.73-7.31.23-2.72.43-5.32.73-8.04.27-2.41.3-4.9.73-7.31.24,0,.49,0,.73,0,2.69,0,5.11.73,7.31.73.97,0,1.95,0,2.92,0-.98,2.17-.53,4.41-.73,6.58-.25,2.67-.47,5.37-.73,8.04-.23,2.42-.48,4.88-.73,7.31-.27,2.68-.46,5.37-.73,8.04-.01.13-.66.81-.76,1.77-.56,5.48-.65,11.05-1.43,16.5,3.4.03,6.83-.03,10.23,0,2.43.03,4.88,0,7.31,0,2.67.01,5.37-.01,8.04,0,2.43.01,4.88,0,7.31,0,2.67,0,5.37.02,8.04,0,2.43-.02,4.88.02,7.31,0,3.88-.03,7.78.06,11.66-.04.58-3.62.94-7.3,1.5-10.92.34-2.21.43-4.43.73-6.58.4-2.89,1.06-5.81,1.46-8.77.32-2.38.41-5.03.73-7.31.16-1.15-.16-2.5,0-3.65.18-1.31.52-2.83.73-4.39.31-2.25,1.11-4.88,1.46-7.31.42-2.89,1.05-5.84,1.46-8.77.25-1.76.54-3.25.73-5.12.21-2.1,1.14-3.65.7-6.17-.31-1.78-1.56-2.24-2.16-3.33-.96-1.73-2.78-6.47-4.72-5.87-.52.16-5.95,7.22-6.99,8.44-.54.64-.54,1.62-.71,1.82-.28.33-1.84,1.89-2.19,2.19-.31.27-2.09,1.6-2.19,1.46.15-2.79-.81-5.4-1.47-8.04-.61-2.46-1.65-5.07-2.19-7.31-1.73-7.13-3.19-14.09-5.12-21.2-.23-.86-.58-1.61-.73-2.19-.67-2.53-.99-6.11-1.46-8.77-2.59-.82-5.03,1.71-6.58,2.2ZM193.01,219.28c-1.68,6.12-2.87,12.25-4.39,18.27-.64,2.55-1.52,5.37-2.19,8.04-1.21,4.83-3.42,9.52-3.66,14.61l-4.38-2.92c-.36-2.08-2.26-4-4.39-4.39-.1-1.62-3.65-5.74-5.13-4.78-.35.23-4.64,6.51-4.77,6.93-1,3.21.2,4.47.41,6.62s.45,4.36.73,6.58c.34,2.71,1.11,5.42,1.46,8.04.31,2.31.39,4.84.73,7.31.7,5.12,1.44,10.24,2.19,15.35.4,2.69,1.08,5.41,1.46,8.04.34,2.29.33,4.7.73,7.31.42,2.77.86,5.3,1.46,8.04.18.83-.14,2.01,0,2.93,1.7.04,3.42-.05,5.12,0,2.43.07,4.88-.02,7.31,0,2.67.02,5.37-.01,8.04,0,2.43.01,4.88,0,7.31,0,7.78.02,15.61.09,23.39,0,2.42-.03,4.89.11,7.31,0,.49-.02.98.04,1.46,0-.57-3.16-.37-6.76-.77-9.83-.08-.62-.68-1.02-.69-1.13-.29-2.47-.49-4.84-.73-7.31-.26-2.67-.48-5.37-.73-8.04-.23-2.45-.49-4.88-.73-7.31-.27-2.69-.42-5.34-.73-8.04-.24-2.13-.08-4.4-.73-6.58,1.68,0,3.36-.73,3.65-.73,2.67,0,5.37,0,8.04,0,.06,2.43-.11,4.89,0,7.31.12,2.64.53,5.36.73,8.04.05.72-.06,1.47,0,2.19.11,1.29.72,1.38.73,1.46.12,1.2-.12,2.46,0,3.65.28,2.69.63,5.33.73,8.04.02.49-.03.98,0,1.46,1.19.61,2.57-.7,2.92-.73.72-.05,1.47.06,2.19,0,2.69-.24,5.35-.45,8.04-.73,2.43-.26,4.88-.43,7.31-.73,2.61-.32,5.6-1.16,8.04-1.46,6.68-.83,7.85,2.46,6.58-5.85-.37-2.45-1.07-4.9-1.46-7.31-.43-2.66-1.04-5.45-1.46-8.04-.36-2.19-.3-4.97-.73-7.31-.94-5.11-1.46-10.34-2.92-15.35-.98-3.35-2.23-5.14-3.65-8.04-4.75-9.69-9.98-15.84-19.73-21.2-2.15-1.18-3.19-1.35-5.12-2.19-6.06-2.64-11.56-3.79-17.54-5.85-5.13-1.76-10.2-3.42-15.35-5.12-2.53-.83-4.98-2-8.04-2.92-1.24-.37-6.72-2.82-7.31-2.2-.03,1.88-.24,4.05-.73,5.85ZM131.62,237.56c-.12,1.01,9.26,15.12,10.23,15.35-.62,2.57-.38,5.61-.73,8.04-.33,2.22-1.09,4.9-1.46,7.31-.33,2.16-.43,4.43-.73,6.58-.78,5.53-1.4,11.25-2.19,16.81-.36,2.57-.4,4.94-.73,7.31s-1.05,5.25-1.46,8.04c-.32,2.2-1.13,5.01-1.46,7.31-.37,2.6-1.24,5.58-1.46,8.04-.09.96.05,1.96,0,2.93,2.67.03,5.37-.04,8.04,0,2.67.04,5.37.02,8.04,0,2.43-.01,4.88.05,7.31,0,2.43-.05,4.88.03,7.31,0,.68-1.7-.58-3.36-.73-4.39-.32-2.14-.43-4.42-.73-6.58-.34-2.41-1.16-5.12-1.46-7.31-.34-2.49-.36-5.39-.73-8.04-.85-6.11-2.05-12.21-2.92-18.27-.2-1.36.2-3.03,0-4.39-.39-2.66-1.06-5.36-1.46-8.04-.34-2.28-1.16-5.14-1.46-7.31-.34-2.46-.14-5.45-.73-8.04.88-.22,10.24-14.09,10.24-15l-11.7-14.61c-2.2-.51-5.85-.92-7.73.32l-11.28,13.94ZM270.49,316.49c-2.64.31-5.33.39-8.04.73-2.4.3-4.92.41-7.31.73-2.65.36-5.42,1.02-8.04,1.46-1.1.18-2.49-.14-3.66,0l1.18,5.89c8.62-.13,17.25.02,25.86-.04,2.42-.02,4.89.11,7.31,0,1.21-.05,2.44.04,3.65,0,.4-1.13-.64-2.21-.73-2.92-.3-2.3-.18-4.91-.78-7.27-.7-.13-1.43-.08-2.14-.04-2.39.13-5.22,1.22-7.31,1.46ZM16.87,315.76c-.96.06-1.93-.14-2.88.04l-1.5,9.46c4.13.03,8.29-.03,12.43,0,2.43.02,4.88.01,7.31,0,2.67-.01,5.37.05,8.04,0,2.41-.04,4.91.17,7.31,0,3.64-.26,2.53-2.27,2.91-5.83-3.41-.28-6.84-1.04-10.22-1.48-2.47-.32-5.39-.43-8.04-.73-2.45-.28-4.86-.49-7.31-.73-2.75-.27-4.8-.92-8.04-.73Z"/>
      <path class="cls-1" d="M117.73,5.14c3.27-1.52,7.85-.59,7.72-5.14l43.44.02c-.56,3.72.56,2.39,1.46,2.93,2.7,1.6,5.21,2.39,8.04,3.65,1.24.55,3.2.87,4.39,1.46,12.47,6.18,25.38,18.33,32.89,29.97,1.2,1.87,4.44,6.59,5.12,8.04,1.29,2.79,3.32,9.56,4.34,12.83.64,2.07,1.91,10.47,2.39,11.13.66.92,4.32.76,5.71,1.24,8.72,3,13.23,12.11,10.22,20.84-.92,2.67-2.02,4.35-3.65,6.58-1.38.01-4.33,3.59-6.58,2.93,2.29,5.19,5.13,9.08,5.84,14.98.24,2-.16,4.19,0,6.21.04.48-.03.98,0,1.46-1.44,1.61-1.31,3.88-2.19,5.85-1.39,3.08-3.29,5.29-5.12,8.04l-10.96,7.31c-8.7.2-7.39,7.61-10.96,13.89-1.75,3.07-7.02,9.6-9.5,12.42-.94,1.07-2.47,2.39-3.65,3.65-1.05,1.13-2.47,2.42-3.65,3.65-1.38,1.43-2.96,3.01-4.39,4.39-1.23,1.19-2.48,2.56-3.65,3.65-1.25,1.17-2.61,2.74-3.65,3.65-2.14,1.87-8.69,7.07-10.96,8.04-1.7.72-5.35,1.16-7.31,1.46-2.77.42-5.24.59-8.04.73-2.41.12-4.89-.02-7.31,0-2.66.02-5.38.09-8.04,0-2.35-.08-5.08.27-7.31,0-5.42-.65-11.02-3.34-15.35-6.58-1.13-.85-2.62-2-3.65-2.92-3.57-3.19-8.23-8.14-11.69-11.69-3.45-3.53-7.03-7.21-10.23-10.96-1.3-1.52-4.25-4.54-5.12-5.85-.41-.62-1.19-1.74-1.46-2.19-.43-.74-2.17-4.87-2.83-6.3-.91-1.94-2.12-7.47-3.31-8.38-1.12-.86-6.27-1.49-8.47-2.5-1.46-.67-6.16-3.72-7.31-4.75-.25-.23-.49-.49-.73-.73-3.35-3.35-6.78-10.66-7.31-15.35-.22-1.91-.27-6.21,0-8.04.54-3.61,5.06-9.71,5.18-12.07.08-1.55-3.27-2.24-4.45-2.55-.25-.07-.66-.61-1.46-.73-5.33-4.51-7.12-17.72-2.19-22.66.17-.17,3.45-2.79,3.65-2.92,3.29-2.21,9.24-2.55,10.27-3.25s1.68-7.4,2.15-9.18c.63-2.35,1.42-5.95,2.19-8.04,1.58-4.29,5.56-11.32,8.04-15.35.32-.52.51-1.11.73-1.46,1-1.55,3.15-4.26,4.39-5.85,3.05-3.92,6.37-7.81,10.23-10.96,1.49-1.22,5-2.11,5.12-4.39,1.41-.23,1.91-.97,2.92-1.46,5.4-2.63,10.64-6.24,16.08-8.77ZM136.01,15.37c-.09,2.42.02,4.88,0,7.31-.02,2.67,0,5.37,0,8.04,0,2.43,0,4.88,0,7.31,0,2.67.02,5.37,0,8.04-.03,4.62.02,9.27,0,13.89-3.58-.3-7.6.75-10.97-.73.07-1.94-.04-3.9,0-5.85.05-2.43-.03-4.88,0-7.31.03-2.67,0-5.37,0-8.04,0-2.43.01-4.88,0-7.31-.02-2.67.02-5.37,0-8.04-.02-2.67.02-5.37,0-8.04-2.7.89-5.43,1.76-8.03,2.92-12.79,5.72-23.63,16.58-30.7,28.5-3.46,5.84-4.71,8.84-6.58,15.35-.57,1.98-2.7,6.53-2.19,8.4l.73.37c43.58-.47,87.25.63,130.83,0,1.18-.02,7.29.3,7.32-.38-1.11-8.65-4.41-16.36-8.78-23.74-5.83-9.85-11.77-16.12-21.2-22.66-5.34-3.7-10.88-7.45-17.54-8.77-.05,10.46.06,20.96,0,31.42-.03,4.62.02,9.27,0,13.89h-10.96c-.03-2.18.05-4.39,0-6.58-.05-2.43.01-4.88,0-7.31-.02-2.67,0-5.37,0-8.04,0-2.43.01-4.88,0-7.31-.02-2.67.02-5.37,0-8.04-.02-2.43.08-4.89,0-7.31-.05-1.46.04-2.93,0-4.39-.97-.02-1.95.02-2.93,0-2.43-.05-4.88.03-7.31,0-2.65-.03-5.39-.12-8.04,0-1.21.06-2.45-.05-3.66,0-.04,1.46.06,2.93,0,4.39ZM63.65,81.88c-.51.21-1.16-.04-1.88.67-.84.83-.71,1.43-1.04,2.25-.15.36-.72.62-.73,1.46-.06,6.8,6.41,5.67,10.96,5.85,2.42.09,4.88-.03,7.31,0,2.67.04,5.37-.02,8.04,0,2.43.02,4.88-.01,7.31,0,2.67.01,5.37,0,8.04,0,2.43,0,4.88,0,7.31,0,2.67,0,5.37,0,8.04,0,2.43,0,4.88,0,7.31,0,2.67,0,5.37,0,8.04,0,2.43,0,4.88,0,7.31,0,2.67,0,5.37,0,8.04,0,2.43,0,4.88,0,7.31,0,2.67,0,5.37,0,8.04,0,2.43,0,4.88,0,7.31,0,2.67,0,5.37,0,8.04,0,2.43,0,4.88,0,7.31,0,2.67,0,5.37.01,8.04,0,2.43,0,4.88.01,7.31,0,2.67-.02,5.37.03,8.04,0,2.43-.02,4.88.04,7.31,0,2.67-.04,5.38.11,8.04,0,3.52-.15,9.21.38,9.5-4.8.46-8.36-12.29-6.07-17.54-6.16-2.43-.04-4.88.02-7.31,0-2.67-.02-5.37.02-8.04,0-2.43-.02-4.88.01-7.31,0-2.67-.01-5.37,0-8.04,0-2.43,0-4.88,0-7.31,0-2.67,0-5.37,0-8.04,0-2.43,0-4.88,0-7.31,0-2.67,0-5.37,0-8.04,0-2.43,0-4.88,0-7.31,0-2.67,0-5.37,0-8.04,0-2.43,0-4.88,0-7.31,0-2.67,0-5.37,0-8.04,0-2.43,0-4.88,0-7.31,0-2.67,0-5.37,0-8.04,0-2.43,0-4.88-.01-7.31,0-2.67.01-5.37-.02-8.04,0-2.43.01-4.88-.02-7.31,0-2.67.02-5.37-.04-8.04,0-4.09.06-9.3-.48-13.16,0-1.23.15-1.29.66-1.46.73ZM87.04,107.46c-.09,2.42.02,4.88,0,7.31-.02,2.67-.06,5.37,0,8.04.06,2.42-.15,4.9,0,7.31.21,3.53.82,4.95,1.46,8.04,1.22,5.87,2.15,9.98,5.12,15.35,4.35,7.85,21.93,25.97,29.23,31.8,3.11,2.49,6.19,4.29,10.24,4.74,2.04.23,4.45-.07,6.58,0,2.66.09,5.38.02,8.04,0,2.43-.02,4.88.08,7.31,0,6.66-.22,9.11.4,14.86-3.78,13.27-9.65,33.21-31.71,35.57-48.11.15-1.02.97-1.56.73-3.65.69-.62.68-1.35.73-2.19.05-.72-.01-1.47,0-2.19.05-2.43,0-4.88,0-7.31.01-2.67.02-5.37,0-8.04-.02-2.43.09-4.89,0-7.31-.05-1.46.04-2.93,0-4.39-1.94-.03-3.91.05-5.85,0-2.43-.06-4.88.02-7.31,0-2.67-.02-5.37,0-8.04,0-2.43,0-4.88,0-7.31,0-2.67,0-5.37,0-8.04,0-2.43,0-4.88,0-7.31,0-2.67,0-5.37,0-8.04,0-2.43,0-4.88,0-7.31,0-2.67,0-5.37,0-8.04,0-2.43,0-4.88,0-7.31,0-2.67,0-5.37,0-8.04,0-2.43,0-4.88,0-7.31,0-2.67,0-5.37,0-8.04,0-2.43,0-4.88-.01-7.31,0-2.67.01-5.37-.06-8.04,0-2.19.05-4.4-.03-6.58,0-.04,1.46.06,2.93,0,4.39ZM76.8,107.46c-.05-.8.34-2.88-.37-2.93-1.71.3-5.17.94-4.74,2.93-.25.04-.53-.06-.73,0-2.64.79-3.68,5.22-4.39,7.31-.45,1.32-.47,1.65-.73,2.92-.15.71-1.65,1.62,0,2.92-.06.67-.06,1.52,0,2.19.16,1.89,1.41,4.36,2.6,5.83,1.05,1.31,2.29,1.26,2.52,1.48.16.16.15,1.5,1.04,2.21,1.15.92,2.99,1.8,4.43,2.18.69,0,.34-3.47.37-4.39.08-2.43-.03-4.88,0-7.31.03-2.67.02-5.37,0-8.04-.02-2.42.14-4.9,0-7.31ZM217.13,114.77c-.04,2.67-.03,5.37,0,8.04.04,3.27-.41,7.55,0,10.61.1.76-.18,1.57,1.09,1.07.57-.22,6.15-4.57,6.55-5.15,3.34-4.86,3.44-13.63.62-18.77-.62-1.13-6.09-5.6-7.17-6.03-1.26-.5-.98.32-1.09,1.07-.36,2.66.04,6.3,0,9.15Z"/>
      <path class="cls-1" d="M185.71,50.07c1.46.06,2.93-.05,4.39,0,.04,1.46-.06,2.93,0,4.39.08,2.18-.06,4.4,0,6.58-1.46.04-2.93-.06-4.39,0-1.94.08-3.91-.05-5.85,0-.47-.46.49-9.22,0-10.97,1.94.06,3.91-.08,5.85,0Z"/>
      <path class="cls-1" d="M108.96,50.07c1.7,0,3.42,0,5.12,0,.04,1.46-.06,2.93,0,4.39.08,2.18-.06,4.4,0,6.58-1.7,0-3.42,0-5.12,0s-3.42,0-5.12,0c.06-2.18-.08-4.4,0-6.58.06-1.46-.05-2.93,0-4.39,1.7,0,3.42,0,5.12,0Z"/>
    </g>
  </g>
</svg>